ISO-10303-21;
HEADER;
/* Generated by software containing ST-Developer
 * from STEP Tools, Inc. (www.steptools.com) 
 */

FILE_DESCRIPTION(
/* description */ (''),
/* implementation_level */ '2;1');

FILE_NAME(
/* name */ 'Gearmotor_37D_100.step',
/* time_stamp */ '2023-04-17T10:19:54-06:00',
/* author */ (''),
/* organization */ (''),
/* preprocessor_version */ 'ST-DEVELOPER v19.2',
/* originating_system */ 'Autodesk Translation Framework v12.4.0.73',
/* authorisation */ '');

FILE_SCHEMA (('AUTOMOTIVE_DESIGN { 1 0 10303 214 3 1 1 }'));
ENDSEC;

DATA;
#10=MECHANICAL_DESIGN_GEOMETRIC_PRESENTATION_REPRESENTATION('',(#347,#348,
#349,#350,#351,#352,#353,#354),#691);
#11=SHAPE_REPRESENTATION_RELATIONSHIP('SRR','None',#698,#12);
#12=ADVANCED_BREP_SHAPE_REPRESENTATION('',(#13),#690);
#13=MANIFOLD_SOLID_BREP('Body1',#383);
#14=FACE_BOUND('',#91,.T.);
#15=FACE_BOUND('',#94,.T.);
#16=FACE_BOUND('',#97,.T.);
#17=FACE_BOUND('',#98,.T.);
#18=FACE_BOUND('',#99,.T.);
#19=FACE_BOUND('',#100,.T.);
#20=FACE_BOUND('',#101,.T.);
#21=FACE_BOUND('',#102,.T.);
#22=FACE_BOUND('',#103,.T.);
#23=FACE_BOUND('',#104,.T.);
#24=FACE_BOUND('',#106,.T.);
#25=PLANE('',#400);
#26=PLANE('',#407);
#27=PLANE('',#411);
#28=PLANE('',#415);
#29=PLANE('',#419);
#30=PLANE('',#423);
#31=PLANE('',#427);
#32=PLANE('',#431);
#33=PLANE('',#432);
#34=PLANE('',#433);
#35=PLANE('',#435);
#36=PLANE('',#443);
#37=PLANE('',#447);
#38=PLANE('',#451);
#39=PLANE('',#452);
#40=FACE_OUTER_BOUND('',#68,.T.);
#41=FACE_OUTER_BOUND('',#69,.T.);
#42=FACE_OUTER_BOUND('',#70,.T.);
#43=FACE_OUTER_BOUND('',#71,.T.);
#44=FACE_OUTER_BOUND('',#72,.T.);
#45=FACE_OUTER_BOUND('',#73,.T.);
#46=FACE_OUTER_BOUND('',#74,.T.);
#47=FACE_OUTER_BOUND('',#75,.T.);
#48=FACE_OUTER_BOUND('',#76,.T.);
#49=FACE_OUTER_BOUND('',#77,.T.);
#50=FACE_OUTER_BOUND('',#78,.T.);
#51=FACE_OUTER_BOUND('',#79,.T.);
#52=FACE_OUTER_BOUND('',#80,.T.);
#53=FACE_OUTER_BOUND('',#81,.T.);
#54=FACE_OUTER_BOUND('',#82,.T.);
#55=FACE_OUTER_BOUND('',#83,.T.);
#56=FACE_OUTER_BOUND('',#84,.T.);
#57=FACE_OUTER_BOUND('',#85,.T.);
#58=FACE_OUTER_BOUND('',#86,.T.);
#59=FACE_OUTER_BOUND('',#87,.T.);
#60=FACE_OUTER_BOUND('',#88,.T.);
#61=FACE_OUTER_BOUND('',#89,.T.);
#62=FACE_OUTER_BOUND('',#90,.T.);
#63=FACE_OUTER_BOUND('',#92,.T.);
#64=FACE_OUTER_BOUND('',#93,.T.);
#65=FACE_OUTER_BOUND('',#95,.T.);
#66=FACE_OUTER_BOUND('',#96,.T.);
#67=FACE_OUTER_BOUND('',#105,.T.);
#68=EDGE_LOOP('',(#244,#245,#246,#247));
#69=EDGE_LOOP('',(#248));
#70=EDGE_LOOP('',(#249,#250,#251,#252));
#71=EDGE_LOOP('',(#253,#254,#255,#256));
#72=EDGE_LOOP('',(#257,#258));
#73=EDGE_LOOP('',(#259,#260,#261,#262));
#74=EDGE_LOOP('',(#263));
#75=EDGE_LOOP('',(#264,#265,#266,#267));
#76=EDGE_LOOP('',(#268));
#77=EDGE_LOOP('',(#269,#270,#271,#272));
#78=EDGE_LOOP('',(#273));
#79=EDGE_LOOP('',(#274,#275,#276,#277));
#80=EDGE_LOOP('',(#278));
#81=EDGE_LOOP('',(#279,#280,#281,#282));
#82=EDGE_LOOP('',(#283));
#83=EDGE_LOOP('',(#284,#285,#286,#287));
#84=EDGE_LOOP('',(#288));
#85=EDGE_LOOP('',(#289,#290,#291,#292));
#86=EDGE_LOOP('',(#293,#294));
#87=EDGE_LOOP('',(#295,#296,#297));
#88=EDGE_LOOP('',(#298,#299,#300,#301,#302,#303,#304,#305));
#89=EDGE_LOOP('',(#306,#307,#308,#309));
#90=EDGE_LOOP('',(#310));
#91=EDGE_LOOP('',(#311));
#92=EDGE_LOOP('',(#312,#313,#314,#315));
#93=EDGE_LOOP('',(#316));
#94=EDGE_LOOP('',(#317));
#95=EDGE_LOOP('',(#318,#319,#320,#321));
#96=EDGE_LOOP('',(#322));
#97=EDGE_LOOP('',(#323,#324));
#98=EDGE_LOOP('',(#325));
#99=EDGE_LOOP('',(#326));
#100=EDGE_LOOP('',(#327));
#101=EDGE_LOOP('',(#328));
#102=EDGE_LOOP('',(#329));
#103=EDGE_LOOP('',(#330));
#104=EDGE_LOOP('',(#331));
#105=EDGE_LOOP('',(#332));
#106=EDGE_LOOP('',(#333));
#107=LINE('',#589,#124);
#108=LINE('',#597,#125);
#109=LINE('',#600,#126);
#110=LINE('',#609,#127);
#111=LINE('',#616,#128);
#112=LINE('',#623,#129);
#113=LINE('',#630,#130);
#114=LINE('',#637,#131);
#115=LINE('',#644,#132);
#116=LINE('',#650,#133);
#117=LINE('',#652,#134);
#118=LINE('',#654,#135);
#119=LINE('',#655,#136);
#120=LINE('',#664,#137);
#121=LINE('',#670,#138);
#122=LINE('',#677,#139);
#123=LINE('',#684,#140);
#124=VECTOR('',#459,17.);
#125=VECTOR('',#468,10.);
#126=VECTOR('',#471,10.);
#127=VECTOR('',#484,1.5);
#128=VECTOR('',#493,1.5);
#129=VECTOR('',#502,1.5);
#130=VECTOR('',#511,1.5);
#131=VECTOR('',#520,1.5);
#132=VECTOR('',#529,1.5);
#133=VECTOR('',#536,10.);
#134=VECTOR('',#537,10.);
#135=VECTOR('',#538,10.);
#136=VECTOR('',#539,10.);
#137=VECTOR('',#552,3.00000004470348);
#138=VECTOR('',#559,6.);
#139=VECTOR('',#568,17.25);
#140=VECTOR('',#577,18.4);
#141=CIRCLE('',#398,17.);
#142=CIRCLE('',#399,17.);
#143=CIRCLE('',#402,8.);
#144=CIRCLE('',#403,8.);
#145=CIRCLE('',#405,13.);
#146=CIRCLE('',#406,13.);
#147=CIRCLE('',#409,1.5);
#148=CIRCLE('',#410,1.5);
#149=CIRCLE('',#413,1.5);
#150=CIRCLE('',#414,1.5);
#151=CIRCLE('',#417,1.5);
#152=CIRCLE('',#418,1.5);
#153=CIRCLE('',#421,1.5);
#154=CIRCLE('',#422,1.5);
#155=CIRCLE('',#425,1.5);
#156=CIRCLE('',#426,1.5);
#157=CIRCLE('',#429,1.5);
#158=CIRCLE('',#430,1.5);
#159=CIRCLE('',#434,3.00000004470348);
#160=CIRCLE('',#436,3.00000004470348);
#161=CIRCLE('',#437,3.00000004470348);
#162=CIRCLE('',#439,3.00000004470348);
#163=CIRCLE('',#441,6.);
#164=CIRCLE('',#442,6.);
#165=CIRCLE('',#445,17.25);
#166=CIRCLE('',#446,17.25);
#167=CIRCLE('',#449,18.4);
#168=CIRCLE('',#450,18.4);
#169=VERTEX_POINT('',#586);
#170=VERTEX_POINT('',#588);
#171=VERTEX_POINT('',#593);
#172=VERTEX_POINT('',#594);
#173=VERTEX_POINT('',#596);
#174=VERTEX_POINT('',#598);
#175=VERTEX_POINT('',#606);
#176=VERTEX_POINT('',#608);
#177=VERTEX_POINT('',#613);
#178=VERTEX_POINT('',#615);
#179=VERTEX_POINT('',#620);
#180=VERTEX_POINT('',#622);
#181=VERTEX_POINT('',#627);
#182=VERTEX_POINT('',#629);
#183=VERTEX_POINT('',#634);
#184=VERTEX_POINT('',#636);
#185=VERTEX_POINT('',#641);
#186=VERTEX_POINT('',#643);
#187=VERTEX_POINT('',#648);
#188=VERTEX_POINT('',#649);
#189=VERTEX_POINT('',#651);
#190=VERTEX_POINT('',#653);
#191=VERTEX_POINT('',#659);
#192=VERTEX_POINT('',#663);
#193=VERTEX_POINT('',#667);
#194=VERTEX_POINT('',#669);
#195=VERTEX_POINT('',#674);
#196=VERTEX_POINT('',#676);
#197=VERTEX_POINT('',#681);
#198=VERTEX_POINT('',#683);
#199=EDGE_CURVE('',#169,#169,#141,.T.);
#200=EDGE_CURVE('',#169,#170,#107,.T.);
#201=EDGE_CURVE('',#170,#170,#142,.T.);
#202=EDGE_CURVE('',#171,#172,#143,.T.);
#203=EDGE_CURVE('',#171,#173,#108,.T.);
#204=EDGE_CURVE('',#173,#174,#144,.T.);
#205=EDGE_CURVE('',#172,#174,#109,.T.);
#206=EDGE_CURVE('',#172,#171,#145,.T.);
#207=EDGE_CURVE('',#174,#173,#146,.T.);
#208=EDGE_CURVE('',#175,#175,#147,.T.);
#209=EDGE_CURVE('',#175,#176,#110,.T.);
#210=EDGE_CURVE('',#176,#176,#148,.T.);
#211=EDGE_CURVE('',#177,#177,#149,.T.);
#212=EDGE_CURVE('',#177,#178,#111,.T.);
#213=EDGE_CURVE('',#178,#178,#150,.T.);
#214=EDGE_CURVE('',#179,#179,#151,.T.);
#215=EDGE_CURVE('',#179,#180,#112,.T.);
#216=EDGE_CURVE('',#180,#180,#152,.T.);
#217=EDGE_CURVE('',#181,#181,#153,.T.);
#218=EDGE_CURVE('',#181,#182,#113,.T.);
#219=EDGE_CURVE('',#182,#182,#154,.T.);
#220=EDGE_CURVE('',#183,#183,#155,.T.);
#221=EDGE_CURVE('',#183,#184,#114,.T.);
#222=EDGE_CURVE('',#184,#184,#156,.T.);
#223=EDGE_CURVE('',#185,#185,#157,.T.);
#224=EDGE_CURVE('',#185,#186,#115,.T.);
#225=EDGE_CURVE('',#186,#186,#158,.T.);
#226=EDGE_CURVE('',#187,#188,#116,.T.);
#227=EDGE_CURVE('',#189,#187,#117,.T.);
#228=EDGE_CURVE('',#189,#190,#118,.T.);
#229=EDGE_CURVE('',#188,#190,#119,.T.);
#230=EDGE_CURVE('',#190,#189,#159,.T.);
#231=EDGE_CURVE('',#188,#191,#160,.T.);
#232=EDGE_CURVE('',#191,#187,#161,.T.);
#233=EDGE_CURVE('',#191,#192,#120,.T.);
#234=EDGE_CURVE('',#192,#192,#162,.T.);
#235=EDGE_CURVE('',#193,#193,#163,.T.);
#236=EDGE_CURVE('',#193,#194,#121,.T.);
#237=EDGE_CURVE('',#194,#194,#164,.T.);
#238=EDGE_CURVE('',#195,#195,#165,.T.);
#239=EDGE_CURVE('',#195,#196,#122,.T.);
#240=EDGE_CURVE('',#196,#196,#166,.T.);
#241=EDGE_CURVE('',#197,#197,#167,.T.);
#242=EDGE_CURVE('',#197,#198,#123,.T.);
#243=EDGE_CURVE('',#198,#198,#168,.T.);
#244=ORIENTED_EDGE('',*,*,#199,.F.);
#245=ORIENTED_EDGE('',*,*,#200,.T.);
#246=ORIENTED_EDGE('',*,*,#201,.F.);
#247=ORIENTED_EDGE('',*,*,#200,.F.);
#248=ORIENTED_EDGE('',*,*,#199,.T.);
#249=ORIENTED_EDGE('',*,*,#202,.F.);
#250=ORIENTED_EDGE('',*,*,#203,.T.);
#251=ORIENTED_EDGE('',*,*,#204,.T.);
#252=ORIENTED_EDGE('',*,*,#205,.F.);
#253=ORIENTED_EDGE('',*,*,#206,.F.);
#254=ORIENTED_EDGE('',*,*,#205,.T.);
#255=ORIENTED_EDGE('',*,*,#207,.T.);
#256=ORIENTED_EDGE('',*,*,#203,.F.);
#257=ORIENTED_EDGE('',*,*,#207,.F.);
#258=ORIENTED_EDGE('',*,*,#204,.F.);
#259=ORIENTED_EDGE('',*,*,#208,.F.);
#260=ORIENTED_EDGE('',*,*,#209,.T.);
#261=ORIENTED_EDGE('',*,*,#210,.T.);
#262=ORIENTED_EDGE('',*,*,#209,.F.);
#263=ORIENTED_EDGE('',*,*,#210,.F.);
#264=ORIENTED_EDGE('',*,*,#211,.F.);
#265=ORIENTED_EDGE('',*,*,#212,.T.);
#266=ORIENTED_EDGE('',*,*,#213,.T.);
#267=ORIENTED_EDGE('',*,*,#212,.F.);
#268=ORIENTED_EDGE('',*,*,#213,.F.);
#269=ORIENTED_EDGE('',*,*,#214,.F.);
#270=ORIENTED_EDGE('',*,*,#215,.T.);
#271=ORIENTED_EDGE('',*,*,#216,.T.);
#272=ORIENTED_EDGE('',*,*,#215,.F.);
#273=ORIENTED_EDGE('',*,*,#216,.F.);
#274=ORIENTED_EDGE('',*,*,#217,.F.);
#275=ORIENTED_EDGE('',*,*,#218,.T.);
#276=ORIENTED_EDGE('',*,*,#219,.T.);
#277=ORIENTED_EDGE('',*,*,#218,.F.);
#278=ORIENTED_EDGE('',*,*,#219,.F.);
#279=ORIENTED_EDGE('',*,*,#220,.F.);
#280=ORIENTED_EDGE('',*,*,#221,.T.);
#281=ORIENTED_EDGE('',*,*,#222,.T.);
#282=ORIENTED_EDGE('',*,*,#221,.F.);
#283=ORIENTED_EDGE('',*,*,#222,.F.);
#284=ORIENTED_EDGE('',*,*,#223,.F.);
#285=ORIENTED_EDGE('',*,*,#224,.T.);
#286=ORIENTED_EDGE('',*,*,#225,.T.);
#287=ORIENTED_EDGE('',*,*,#224,.F.);
#288=ORIENTED_EDGE('',*,*,#225,.F.);
#289=ORIENTED_EDGE('',*,*,#226,.F.);
#290=ORIENTED_EDGE('',*,*,#227,.F.);
#291=ORIENTED_EDGE('',*,*,#228,.T.);
#292=ORIENTED_EDGE('',*,*,#229,.F.);
#293=ORIENTED_EDGE('',*,*,#228,.F.);
#294=ORIENTED_EDGE('',*,*,#230,.F.);
#295=ORIENTED_EDGE('',*,*,#226,.T.);
#296=ORIENTED_EDGE('',*,*,#231,.T.);
#297=ORIENTED_EDGE('',*,*,#232,.T.);
#298=ORIENTED_EDGE('',*,*,#231,.F.);
#299=ORIENTED_EDGE('',*,*,#229,.T.);
#300=ORIENTED_EDGE('',*,*,#230,.T.);
#301=ORIENTED_EDGE('',*,*,#227,.T.);
#302=ORIENTED_EDGE('',*,*,#232,.F.);
#303=ORIENTED_EDGE('',*,*,#233,.T.);
#304=ORIENTED_EDGE('',*,*,#234,.F.);
#305=ORIENTED_EDGE('',*,*,#233,.F.);
#306=ORIENTED_EDGE('',*,*,#235,.F.);
#307=ORIENTED_EDGE('',*,*,#236,.T.);
#308=ORIENTED_EDGE('',*,*,#237,.F.);
#309=ORIENTED_EDGE('',*,*,#236,.F.);
#310=ORIENTED_EDGE('',*,*,#235,.T.);
#311=ORIENTED_EDGE('',*,*,#234,.T.);
#312=ORIENTED_EDGE('',*,*,#238,.F.);
#313=ORIENTED_EDGE('',*,*,#239,.T.);
#314=ORIENTED_EDGE('',*,*,#240,.F.);
#315=ORIENTED_EDGE('',*,*,#239,.F.);
#316=ORIENTED_EDGE('',*,*,#238,.T.);
#317=ORIENTED_EDGE('',*,*,#201,.T.);
#318=ORIENTED_EDGE('',*,*,#241,.F.);
#319=ORIENTED_EDGE('',*,*,#242,.T.);
#320=ORIENTED_EDGE('',*,*,#243,.F.);
#321=ORIENTED_EDGE('',*,*,#242,.F.);
#322=ORIENTED_EDGE('',*,*,#243,.T.);
#323=ORIENTED_EDGE('',*,*,#202,.T.);
#324=ORIENTED_EDGE('',*,*,#206,.T.);
#325=ORIENTED_EDGE('',*,*,#208,.T.);
#326=ORIENTED_EDGE('',*,*,#211,.T.);
#327=ORIENTED_EDGE('',*,*,#214,.T.);
#328=ORIENTED_EDGE('',*,*,#217,.T.);
#329=ORIENTED_EDGE('',*,*,#220,.T.);
#330=ORIENTED_EDGE('',*,*,#223,.T.);
#331=ORIENTED_EDGE('',*,*,#237,.T.);
#332=ORIENTED_EDGE('',*,*,#241,.T.);
#333=ORIENTED_EDGE('',*,*,#240,.T.);
#334=CYLINDRICAL_SURFACE('',#397,17.);
#335=CYLINDRICAL_SURFACE('',#401,8.);
#336=CYLINDRICAL_SURFACE('',#404,13.);
#337=CYLINDRICAL_SURFACE('',#408,1.5);
#338=CYLINDRICAL_SURFACE('',#412,1.5);
#339=CYLINDRICAL_SURFACE('',#416,1.5);
#340=CYLINDRICAL_SURFACE('',#420,1.5);
#341=CYLINDRICAL_SURFACE('',#424,1.5);
#342=CYLINDRICAL_SURFACE('',#428,1.5);
#343=CYLINDRICAL_SURFACE('',#438,3.00000004470348);
#344=CYLINDRICAL_SURFACE('',#440,6.);
#345=CYLINDRICAL_SURFACE('',#444,17.25);
#346=CYLINDRICAL_SURFACE('',#448,18.4);
#347=STYLED_ITEM('',(#709),#355);
#348=STYLED_ITEM('',(#709),#356);
#349=STYLED_ITEM('',(#710),#359);
#350=STYLED_ITEM('',(#710),#376);
#351=STYLED_ITEM('',(#710),#377);
#352=STYLED_ITEM('',(#710),#380);
#353=STYLED_ITEM('',(#710),#381);
#354=STYLED_ITEM('',(#708),#13);
#355=ADVANCED_FACE('',(#40),#334,.T.);
#356=ADVANCED_FACE('',(#41),#25,.T.);
#357=ADVANCED_FACE('',(#42),#335,.T.);
#358=ADVANCED_FACE('',(#43),#336,.F.);
#359=ADVANCED_FACE('',(#44),#26,.T.);
#360=ADVANCED_FACE('',(#45),#337,.F.);
#361=ADVANCED_FACE('',(#46),#27,.T.);
#362=ADVANCED_FACE('',(#47),#338,.F.);
#363=ADVANCED_FACE('',(#48),#28,.T.);
#364=ADVANCED_FACE('',(#49),#339,.F.);
#365=ADVANCED_FACE('',(#50),#29,.T.);
#366=ADVANCED_FACE('',(#51),#340,.F.);
#367=ADVANCED_FACE('',(#52),#30,.T.);
#368=ADVANCED_FACE('',(#53),#341,.F.);
#369=ADVANCED_FACE('',(#54),#31,.T.);
#370=ADVANCED_FACE('',(#55),#342,.F.);
#371=ADVANCED_FACE('',(#56),#32,.T.);
#372=ADVANCED_FACE('',(#57),#33,.F.);
#373=ADVANCED_FACE('',(#58),#34,.T.);
#374=ADVANCED_FACE('',(#59),#35,.T.);
#375=ADVANCED_FACE('',(#60),#343,.T.);
#376=ADVANCED_FACE('',(#61),#344,.T.);
#377=ADVANCED_FACE('',(#62,#14),#36,.T.);
#378=ADVANCED_FACE('',(#63),#345,.T.);
#379=ADVANCED_FACE('',(#64,#15),#37,.T.);
#380=ADVANCED_FACE('',(#65),#346,.T.);
#381=ADVANCED_FACE('',(#66,#16,#17,#18,#19,#20,#21,#22,#23),#38,.T.);
#382=ADVANCED_FACE('',(#67,#24),#39,.F.);
#383=CLOSED_SHELL('',(#355,#356,#357,#358,#359,#360,#361,#362,#363,#364,
#365,#366,#367,#368,#369,#370,#371,#372,#373,#374,#375,#376,#377,#378,#379,
#380,#381,#382));
#384=DERIVED_UNIT_ELEMENT(#386,1.);
#385=DERIVED_UNIT_ELEMENT(#693,-3.);
#386=(
MASS_UNIT()
NAMED_UNIT(*)
SI_UNIT(.KILO.,.GRAM.)
);
#387=DERIVED_UNIT((#384,#385));
#388=MEASURE_REPRESENTATION_ITEM('density measure',
POSITIVE_RATIO_MEASURE(7850.),#387);
#389=PROPERTY_DEFINITION_REPRESENTATION(#394,#391);
#390=PROPERTY_DEFINITION_REPRESENTATION(#395,#392);
#391=REPRESENTATION('material name',(#393),#690);
#392=REPRESENTATION('density',(#388),#690);
#393=DESCRIPTIVE_REPRESENTATION_ITEM('Steel','Steel');
#394=PROPERTY_DEFINITION('material property','material name',#700);
#395=PROPERTY_DEFINITION('material property','density of part',#700);
#396=AXIS2_PLACEMENT_3D('',#584,#453,#454);
#397=AXIS2_PLACEMENT_3D('',#585,#455,#456);
#398=AXIS2_PLACEMENT_3D('',#587,#457,#458);
#399=AXIS2_PLACEMENT_3D('',#590,#460,#461);
#400=AXIS2_PLACEMENT_3D('',#591,#462,#463);
#401=AXIS2_PLACEMENT_3D('',#592,#464,#465);
#402=AXIS2_PLACEMENT_3D('',#595,#466,#467);
#403=AXIS2_PLACEMENT_3D('',#599,#469,#470);
#404=AXIS2_PLACEMENT_3D('',#601,#472,#473);
#405=AXIS2_PLACEMENT_3D('',#602,#474,#475);
#406=AXIS2_PLACEMENT_3D('',#603,#476,#477);
#407=AXIS2_PLACEMENT_3D('',#604,#478,#479);
#408=AXIS2_PLACEMENT_3D('',#605,#480,#481);
#409=AXIS2_PLACEMENT_3D('',#607,#482,#483);
#410=AXIS2_PLACEMENT_3D('',#610,#485,#486);
#411=AXIS2_PLACEMENT_3D('',#611,#487,#488);
#412=AXIS2_PLACEMENT_3D('',#612,#489,#490);
#413=AXIS2_PLACEMENT_3D('',#614,#491,#492);
#414=AXIS2_PLACEMENT_3D('',#617,#494,#495);
#415=AXIS2_PLACEMENT_3D('',#618,#496,#497);
#416=AXIS2_PLACEMENT_3D('',#619,#498,#499);
#417=AXIS2_PLACEMENT_3D('',#621,#500,#501);
#418=AXIS2_PLACEMENT_3D('',#624,#503,#504);
#419=AXIS2_PLACEMENT_3D('',#625,#505,#506);
#420=AXIS2_PLACEMENT_3D('',#626,#507,#508);
#421=AXIS2_PLACEMENT_3D('',#628,#509,#510);
#422=AXIS2_PLACEMENT_3D('',#631,#512,#513);
#423=AXIS2_PLACEMENT_3D('',#632,#514,#515);
#424=AXIS2_PLACEMENT_3D('',#633,#516,#517);
#425=AXIS2_PLACEMENT_3D('',#635,#518,#519);
#426=AXIS2_PLACEMENT_3D('',#638,#521,#522);
#427=AXIS2_PLACEMENT_3D('',#639,#523,#524);
#428=AXIS2_PLACEMENT_3D('',#640,#525,#526);
#429=AXIS2_PLACEMENT_3D('',#642,#527,#528);
#430=AXIS2_PLACEMENT_3D('',#645,#530,#531);
#431=AXIS2_PLACEMENT_3D('',#646,#532,#533);
#432=AXIS2_PLACEMENT_3D('',#647,#534,#535);
#433=AXIS2_PLACEMENT_3D('',#656,#540,#541);
#434=AXIS2_PLACEMENT_3D('',#657,#542,#543);
#435=AXIS2_PLACEMENT_3D('',#658,#544,#545);
#436=AXIS2_PLACEMENT_3D('',#660,#546,#547);
#437=AXIS2_PLACEMENT_3D('',#661,#548,#549);
#438=AXIS2_PLACEMENT_3D('',#662,#550,#551);
#439=AXIS2_PLACEMENT_3D('',#665,#553,#554);
#440=AXIS2_PLACEMENT_3D('',#666,#555,#556);
#441=AXIS2_PLACEMENT_3D('',#668,#557,#558);
#442=AXIS2_PLACEMENT_3D('',#671,#560,#561);
#443=AXIS2_PLACEMENT_3D('',#672,#562,#563);
#444=AXIS2_PLACEMENT_3D('',#673,#564,#565);
#445=AXIS2_PLACEMENT_3D('',#675,#566,#567);
#446=AXIS2_PLACEMENT_3D('',#678,#569,#570);
#447=AXIS2_PLACEMENT_3D('',#679,#571,#572);
#448=AXIS2_PLACEMENT_3D('',#680,#573,#574);
#449=AXIS2_PLACEMENT_3D('',#682,#575,#576);
#450=AXIS2_PLACEMENT_3D('',#685,#578,#579);
#451=AXIS2_PLACEMENT_3D('',#686,#580,#581);
#452=AXIS2_PLACEMENT_3D('',#687,#582,#583);
#453=DIRECTION('axis',(0.,0.,1.));
#454=DIRECTION('refdir',(1.,0.,0.));
#455=DIRECTION('center_axis',(-1.,0.,0.));
#456=DIRECTION('ref_axis',(0.,0.,1.));
#457=DIRECTION('center_axis',(-1.,0.,0.));
#458=DIRECTION('ref_axis',(0.,0.,1.));
#459=DIRECTION('',(1.,0.,0.));
#460=DIRECTION('center_axis',(1.,0.,0.));
#461=DIRECTION('ref_axis',(0.,0.,1.));
#462=DIRECTION('center_axis',(-1.,0.,0.));
#463=DIRECTION('ref_axis',(0.,0.,1.));
#464=DIRECTION('center_axis',(-1.,0.,0.));
#465=DIRECTION('ref_axis',(0.,1.,0.));
#466=DIRECTION('center_axis',(1.,0.,0.));
#467=DIRECTION('ref_axis',(0.,-0.499999979510904,-0.866025415613824));
#468=DIRECTION('',(-1.,0.,0.));
#469=DIRECTION('center_axis',(1.,0.,0.));
#470=DIRECTION('ref_axis',(0.,-0.499999979510904,-0.866025415613824));
#471=DIRECTION('',(-1.,0.,0.));
#472=DIRECTION('center_axis',(-1.,0.,0.));
#473=DIRECTION('ref_axis',(0.,1.,0.));
#474=DIRECTION('center_axis',(-1.,0.,0.));
#475=DIRECTION('ref_axis',(0.,-0.846153841568874,-0.532938717300814));
#476=DIRECTION('center_axis',(-1.,0.,0.));
#477=DIRECTION('ref_axis',(0.,-0.846153841568874,-0.532938717300814));
#478=DIRECTION('center_axis',(1.,0.,0.));
#479=DIRECTION('ref_axis',(0.,0.,-1.));
#480=DIRECTION('center_axis',(-1.,0.,0.));
#481=DIRECTION('ref_axis',(0.,0.,-1.));
#482=DIRECTION('center_axis',(-1.,0.,0.));
#483=DIRECTION('ref_axis',(0.,0.,-1.));
#484=DIRECTION('',(-1.,0.,0.));
#485=DIRECTION('center_axis',(-1.,0.,0.));
#486=DIRECTION('ref_axis',(0.,0.,-1.));
#487=DIRECTION('center_axis',(1.,0.,0.));
#488=DIRECTION('ref_axis',(0.,0.,-1.));
#489=DIRECTION('center_axis',(-1.,0.,0.));
#490=DIRECTION('ref_axis',(0.,0.,-1.));
#491=DIRECTION('center_axis',(-1.,0.,0.));
#492=DIRECTION('ref_axis',(0.,0.,-1.));
#493=DIRECTION('',(-1.,0.,0.));
#494=DIRECTION('center_axis',(-1.,0.,0.));
#495=DIRECTION('ref_axis',(0.,0.,-1.));
#496=DIRECTION('center_axis',(1.,0.,0.));
#497=DIRECTION('ref_axis',(0.,0.,-1.));
#498=DIRECTION('center_axis',(-1.,0.,0.));
#499=DIRECTION('ref_axis',(0.,0.,-1.));
#500=DIRECTION('center_axis',(-1.,0.,0.));
#501=DIRECTION('ref_axis',(0.,0.,-1.));
#502=DIRECTION('',(-1.,0.,0.));
#503=DIRECTION('center_axis',(-1.,0.,0.));
#504=DIRECTION('ref_axis',(0.,0.,-1.));
#505=DIRECTION('center_axis',(1.,0.,0.));
#506=DIRECTION('ref_axis',(0.,0.,-1.));
#507=DIRECTION('center_axis',(-1.,0.,0.));
#508=DIRECTION('ref_axis',(0.,0.,-1.));
#509=DIRECTION('center_axis',(-1.,0.,0.));
#510=DIRECTION('ref_axis',(0.,0.,-1.));
#511=DIRECTION('',(-1.,0.,0.));
#512=DIRECTION('center_axis',(-1.,0.,0.));
#513=DIRECTION('ref_axis',(0.,0.,-1.));
#514=DIRECTION('center_axis',(1.,0.,0.));
#515=DIRECTION('ref_axis',(0.,0.,-1.));
#516=DIRECTION('center_axis',(-1.,0.,0.));
#517=DIRECTION('ref_axis',(0.,0.,-1.));
#518=DIRECTION('center_axis',(-1.,0.,0.));
#519=DIRECTION('ref_axis',(0.,0.,-1.));
#520=DIRECTION('',(-1.,0.,0.));
#521=DIRECTION('center_axis',(-1.,0.,0.));
#522=DIRECTION('ref_axis',(0.,0.,-1.));
#523=DIRECTION('center_axis',(1.,0.,0.));
#524=DIRECTION('ref_axis',(0.,0.,-1.));
#525=DIRECTION('center_axis',(-1.,0.,0.));
#526=DIRECTION('ref_axis',(0.,0.,-1.));
#527=DIRECTION('center_axis',(-1.,0.,0.));
#528=DIRECTION('ref_axis',(0.,0.,-1.));
#529=DIRECTION('',(-1.,0.,0.));
#530=DIRECTION('center_axis',(-1.,0.,0.));
#531=DIRECTION('ref_axis',(0.,0.,-1.));
#532=DIRECTION('center_axis',(1.,0.,0.));
#533=DIRECTION('ref_axis',(0.,0.,-1.));
#534=DIRECTION('center_axis',(0.,-1.,0.));
#535=DIRECTION('ref_axis',(0.,0.,1.));
#536=DIRECTION('',(0.,0.,1.));
#537=DIRECTION('',(1.,0.,0.));
#538=DIRECTION('',(0.,0.,1.));
#539=DIRECTION('',(-1.,0.,0.));
#540=DIRECTION('center_axis',(1.,0.,0.));
#541=DIRECTION('ref_axis',(0.,0.,-1.));
#542=DIRECTION('center_axis',(-1.,0.,0.));
#543=DIRECTION('ref_axis',(0.,0.,-1.));
#544=DIRECTION('center_axis',(1.,0.,0.));
#545=DIRECTION('ref_axis',(0.,0.,-1.));
#546=DIRECTION('center_axis',(1.,0.,0.));
#547=DIRECTION('ref_axis',(0.,0.,-1.));
#548=DIRECTION('center_axis',(1.,0.,0.));
#549=DIRECTION('ref_axis',(0.,0.,-1.));
#550=DIRECTION('center_axis',(1.,0.,0.));
#551=DIRECTION('ref_axis',(0.,0.,-1.));
#552=DIRECTION('',(-1.,0.,0.));
#553=DIRECTION('center_axis',(-1.,0.,0.));
#554=DIRECTION('ref_axis',(0.,0.,-1.));
#555=DIRECTION('center_axis',(1.,0.,0.));
#556=DIRECTION('ref_axis',(0.,0.,-1.));
#557=DIRECTION('center_axis',(1.,0.,0.));
#558=DIRECTION('ref_axis',(0.,0.,-1.));
#559=DIRECTION('',(-1.,0.,0.));
#560=DIRECTION('center_axis',(-1.,0.,0.));
#561=DIRECTION('ref_axis',(0.,0.,-1.));
#562=DIRECTION('center_axis',(1.,0.,0.));
#563=DIRECTION('ref_axis',(0.,0.,-1.));
#564=DIRECTION('center_axis',(-1.,0.,0.));
#565=DIRECTION('ref_axis',(0.,0.,1.));
#566=DIRECTION('center_axis',(-1.,0.,0.));
#567=DIRECTION('ref_axis',(0.,0.,1.));
#568=DIRECTION('',(1.,0.,0.));
#569=DIRECTION('center_axis',(1.,0.,0.));
#570=DIRECTION('ref_axis',(0.,0.,1.));
#571=DIRECTION('center_axis',(-1.,0.,0.));
#572=DIRECTION('ref_axis',(0.,0.,1.));
#573=DIRECTION('center_axis',(-1.,0.,0.));
#574=DIRECTION('ref_axis',(0.,0.,-1.));
#575=DIRECTION('center_axis',(-1.,0.,0.));
#576=DIRECTION('ref_axis',(0.,0.,-1.));
#577=DIRECTION('',(1.,0.,0.));
#578=DIRECTION('center_axis',(1.,0.,0.));
#579=DIRECTION('ref_axis',(0.,0.,-1.));
#580=DIRECTION('center_axis',(1.,0.,0.));
#581=DIRECTION('ref_axis',(0.,0.,-1.));
#582=DIRECTION('center_axis',(1.,0.,0.));
#583=DIRECTION('ref_axis',(0.,0.,-1.));
#584=CARTESIAN_POINT('',(0.,0.,0.));
#585=CARTESIAN_POINT('Origin',(-57.2,0.,0.));
#586=CARTESIAN_POINT('',(-72.6,-2.0818995585505E-15,-17.));
#587=CARTESIAN_POINT('Origin',(-72.6,0.,0.));
#588=CARTESIAN_POINT('',(-57.2,-2.0818995585505E-15,-17.));
#589=CARTESIAN_POINT('',(-57.2,-2.0818995585505E-15,-17.));
#590=CARTESIAN_POINT('Origin',(-57.2,0.,0.));
#591=CARTESIAN_POINT('Origin',(-72.6,0.,0.));
#592=CARTESIAN_POINT('Origin',(0.,-7.00000010430813,0.));
#593=CARTESIAN_POINT('',(0.,-10.9999999403954,-6.92820332491059));
#594=CARTESIAN_POINT('',(0.,-10.9999999403954,6.92820332491059));
#595=CARTESIAN_POINT('Origin',(0.,-7.00000010430813,0.));
#596=CARTESIAN_POINT('',(-1.,-10.9999999403954,-6.92820332491059));
#597=CARTESIAN_POINT('',(0.,-10.9999999403954,-6.92820332491059));
#598=CARTESIAN_POINT('',(-1.,-10.9999999403954,6.92820332491059));
#599=CARTESIAN_POINT('Origin',(-1.,-7.00000010430813,0.));
#600=CARTESIAN_POINT('',(0.,-10.9999999403954,6.92820332491059));
#601=CARTESIAN_POINT('Origin',(0.,0.,0.));
#602=CARTESIAN_POINT('Origin',(0.,0.,0.));
#603=CARTESIAN_POINT('Origin',(-1.,0.,0.));
#604=CARTESIAN_POINT('Origin',(-1.,1.00000002980232,-2.22044604925031E-15));
#605=CARTESIAN_POINT('Origin',(0.,-1.8982025386784E-15,-15.5));
#606=CARTESIAN_POINT('',(0.,-2.0818995585505E-15,-14.));
#607=CARTESIAN_POINT('Origin',(0.,-1.8982025386784E-15,-15.5));
#608=CARTESIAN_POINT('',(-8.,-2.0818995585505E-15,-14.));
#609=CARTESIAN_POINT('',(0.,-1.7145055188063E-15,-14.));
#610=CARTESIAN_POINT('Origin',(-8.,-1.8982025386784E-15,-15.5));
#611=CARTESIAN_POINT('Origin',(-8.,-1.94289029309402E-15,-15.5));
#612=CARTESIAN_POINT('Origin',(0.,13.4233937586588,7.74999999999999));
#613=CARTESIAN_POINT('',(0.,13.4233937586588,9.24999999999999));
#614=CARTESIAN_POINT('Origin',(0.,13.4233937586588,7.74999999999999));
#615=CARTESIAN_POINT('',(-8.,13.4233937586588,9.24999999999999));
#616=CARTESIAN_POINT('',(0.,13.4233937586588,9.24999999999999));
#617=CARTESIAN_POINT('Origin',(-8.,13.4233937586588,7.74999999999999));
#618=CARTESIAN_POINT('Origin',(-8.,13.4233937586588,7.74999999999999));
#619=CARTESIAN_POINT('Origin',(0.,-13.4233937586588,-7.75));
#620=CARTESIAN_POINT('',(0.,-13.4233937586588,-6.25));
#621=CARTESIAN_POINT('Origin',(0.,-13.4233937586588,-7.75));
#622=CARTESIAN_POINT('',(-8.,-13.4233937586588,-6.25));
#623=CARTESIAN_POINT('',(0.,-13.4233937586588,-6.25));
#624=CARTESIAN_POINT('Origin',(-8.,-13.4233937586588,-7.75));
#625=CARTESIAN_POINT('Origin',(-8.,-13.4233937586588,-7.75));
#626=CARTESIAN_POINT('Origin',(0.,13.4233937586588,-7.75000000000001));
#627=CARTESIAN_POINT('',(0.,13.4233937586588,-6.25000000000001));
#628=CARTESIAN_POINT('Origin',(0.,13.4233937586588,-7.75000000000001));
#629=CARTESIAN_POINT('',(-8.,13.4233937586588,-6.25000000000001));
#630=CARTESIAN_POINT('',(0.,13.4233937586588,-6.25000000000001));
#631=CARTESIAN_POINT('Origin',(-8.,13.4233937586588,-7.75000000000001));
#632=CARTESIAN_POINT('Origin',(-8.,13.4233937586588,-7.75000000000001));
#633=CARTESIAN_POINT('Origin',(0.,2.69630192214213E-32,15.5));
#634=CARTESIAN_POINT('',(0.,-1.83697019872103E-16,17.));
#635=CARTESIAN_POINT('Origin',(0.,2.69630192214213E-32,15.5));
#636=CARTESIAN_POINT('',(-8.,-1.83697019872103E-16,17.));
#637=CARTESIAN_POINT('',(0.,1.83697019872103E-16,17.));
#638=CARTESIAN_POINT('Origin',(-8.,2.69630192214213E-32,15.5));
#639=CARTESIAN_POINT('Origin',(-8.,0.,15.5));
#640=CARTESIAN_POINT('Origin',(0.,-13.4233937586588,7.75));
#641=CARTESIAN_POINT('',(0.,-13.4233937586588,9.25));
#642=CARTESIAN_POINT('Origin',(0.,-13.4233937586588,7.75));
#643=CARTESIAN_POINT('',(-8.,-13.4233937586588,9.25));
#644=CARTESIAN_POINT('',(0.,-13.4233937586588,9.25));
#645=CARTESIAN_POINT('Origin',(-8.,-13.4233937586588,7.75));
#646=CARTESIAN_POINT('Origin',(-8.,-13.4233937586588,7.75));
#647=CARTESIAN_POINT('Origin',(22.,-4.40000010430813,-1.49666304431589));
#648=CARTESIAN_POINT('',(22.,-4.40000010430813,-1.49666304431589));
#649=CARTESIAN_POINT('',(22.,-4.40000010430813,1.49666304431589));
#650=CARTESIAN_POINT('',(22.,-4.40000010430813,-0.748331522157944));
#651=CARTESIAN_POINT('',(10.,-4.40000010430813,-1.49666304431589));
#652=CARTESIAN_POINT('',(6.,-4.40000010430813,-1.49666304431589));
#653=CARTESIAN_POINT('',(10.,-4.40000010430813,1.49666304431589));
#654=CARTESIAN_POINT('',(10.,-4.40000010430813,-1.49666304431589));
#655=CARTESIAN_POINT('',(6.,-4.40000010430813,1.49666304431589));
#656=CARTESIAN_POINT('Origin',(10.,-4.20000008195639,0.));
#657=CARTESIAN_POINT('Origin',(10.,-7.00000010430813,0.));
#658=CARTESIAN_POINT('Origin',(22.,-7.00000010430813,0.));
#659=CARTESIAN_POINT('',(22.,-7.00000010430813,3.00000004470348));
#660=CARTESIAN_POINT('Origin',(22.,-7.00000010430813,0.));
#661=CARTESIAN_POINT('Origin',(22.,-7.00000010430813,0.));
#662=CARTESIAN_POINT('Origin',(6.,-7.00000010430813,0.));
#663=CARTESIAN_POINT('',(6.,-7.00000010430813,3.00000004470348));
#664=CARTESIAN_POINT('',(6.,-7.00000010430813,3.00000004470348));
#665=CARTESIAN_POINT('Origin',(6.,-7.00000010430813,0.));
#666=CARTESIAN_POINT('Origin',(0.,-7.00000010430813,0.));
#667=CARTESIAN_POINT('',(6.,-7.00000010430813,6.));
#668=CARTESIAN_POINT('Origin',(6.,-7.00000010430813,0.));
#669=CARTESIAN_POINT('',(0.,-7.00000010430813,6.));
#670=CARTESIAN_POINT('',(0.,-7.00000010430813,6.));
#671=CARTESIAN_POINT('Origin',(0.,-7.00000010430813,0.));
#672=CARTESIAN_POINT('Origin',(6.,-7.00000010430813,0.));
#673=CARTESIAN_POINT('Origin',(-26.5,0.,0.));
#674=CARTESIAN_POINT('',(-57.2,-2.11251572852918E-15,-17.25));
#675=CARTESIAN_POINT('Origin',(-57.2,0.,0.));
#676=CARTESIAN_POINT('',(-26.5,-2.11251572852918E-15,-17.25));
#677=CARTESIAN_POINT('',(-26.5,-2.11251572852918E-15,-17.25));
#678=CARTESIAN_POINT('Origin',(-26.5,0.,0.));
#679=CARTESIAN_POINT('Origin',(-57.2,0.,0.));
#680=CARTESIAN_POINT('Origin',(0.,0.,0.));
#681=CARTESIAN_POINT('',(-26.5,-2.25335011043113E-15,18.4));
#682=CARTESIAN_POINT('Origin',(-26.5,0.,0.));
#683=CARTESIAN_POINT('',(0.,-2.25335011043113E-15,18.4));
#684=CARTESIAN_POINT('',(0.,2.25335011043113E-15,18.4));
#685=CARTESIAN_POINT('Origin',(0.,0.,0.));
#686=CARTESIAN_POINT('Origin',(0.,0.,0.));
#687=CARTESIAN_POINT('Origin',(-26.5,0.,0.));
#688=UNCERTAINTY_MEASURE_WITH_UNIT(LENGTH_MEASURE(0.01),#692,
'DISTANCE_ACCURACY_VALUE',
'Maximum model space distance between geometric entities at asserted c
onnectivities');
#689=UNCERTAINTY_MEASURE_WITH_UNIT(LENGTH_MEASURE(0.01),#692,
'DISTANCE_ACCURACY_VALUE',
'Maximum model space distance between geometric entities at asserted c
onnectivities');
#690=(
GEOMETRIC_REPRESENTATION_CONTEXT(3)
GLOBAL_UNCERTAINTY_ASSIGNED_CONTEXT((#688))
GLOBAL_UNIT_ASSIGNED_CONTEXT((#692,#694,#695))
REPRESENTATION_CONTEXT('','3D')
);
#691=(
GEOMETRIC_REPRESENTATION_CONTEXT(3)
GLOBAL_UNCERTAINTY_ASSIGNED_CONTEXT((#689))
GLOBAL_UNIT_ASSIGNED_CONTEXT((#692,#694,#695))
REPRESENTATION_CONTEXT('','3D')
);
#692=(
LENGTH_UNIT()
NAMED_UNIT(*)
SI_UNIT(.MILLI.,.METRE.)
);
#693=(
LENGTH_UNIT()
NAMED_UNIT(*)
SI_UNIT($,.METRE.)
);
#694=(
NAMED_UNIT(*)
PLANE_ANGLE_UNIT()
SI_UNIT($,.RADIAN.)
);
#695=(
NAMED_UNIT(*)
SI_UNIT($,.STERADIAN.)
SOLID_ANGLE_UNIT()
);
#696=SHAPE_DEFINITION_REPRESENTATION(#697,#698);
#697=PRODUCT_DEFINITION_SHAPE('',$,#700);
#698=SHAPE_REPRESENTATION('',(#396),#690);
#699=PRODUCT_DEFINITION_CONTEXT('part definition',#704,'design');
#700=PRODUCT_DEFINITION('Gearmotor_37D_100','Gearmotor_37D_100 v1',#701,
#699);
#701=PRODUCT_DEFINITION_FORMATION('',$,#706);
#702=PRODUCT_RELATED_PRODUCT_CATEGORY('Gearmotor_37D_100 v1',
'Gearmotor_37D_100 v1',(#706));
#703=APPLICATION_PROTOCOL_DEFINITION('international standard',
'automotive_design',2009,#704);
#704=APPLICATION_CONTEXT(
'Core Data for Automotive Mechanical Design Process');
#705=PRODUCT_CONTEXT('part definition',#704,'mechanical');
#706=PRODUCT('Gearmotor_37D_100','Gearmotor_37D_100 v1',$,(#705));
#707=PRESENTATION_STYLE_ASSIGNMENT((#711));
#708=PRESENTATION_STYLE_ASSIGNMENT((#712));
#709=PRESENTATION_STYLE_ASSIGNMENT((#713));
#710=PRESENTATION_STYLE_ASSIGNMENT((#714));
#711=SURFACE_STYLE_USAGE(.BOTH.,#715);
#712=SURFACE_STYLE_USAGE(.BOTH.,#716);
#713=SURFACE_STYLE_USAGE(.BOTH.,#717);
#714=SURFACE_STYLE_USAGE(.BOTH.,#718);
#715=SURFACE_SIDE_STYLE('',(#719));
#716=SURFACE_SIDE_STYLE('',(#720));
#717=SURFACE_SIDE_STYLE('',(#721));
#718=SURFACE_SIDE_STYLE('',(#722));
#719=SURFACE_STYLE_FILL_AREA(#723);
#720=SURFACE_STYLE_FILL_AREA(#724);
#721=SURFACE_STYLE_FILL_AREA(#725);
#722=SURFACE_STYLE_FILL_AREA(#726);
#723=FILL_AREA_STYLE('Steel - Satin',(#727));
#724=FILL_AREA_STYLE('Opaque(160,160,160)',(#728));
#725=FILL_AREA_STYLE('Opaque(25,25,25)',(#729));
#726=FILL_AREA_STYLE('Opaque(179,179,179)',(#730));
#727=FILL_AREA_STYLE_COLOUR('Steel - Satin',#731);
#728=FILL_AREA_STYLE_COLOUR('Opaque(160,160,160)',#732);
#729=FILL_AREA_STYLE_COLOUR('Opaque(25,25,25)',#733);
#730=FILL_AREA_STYLE_COLOUR('Opaque(179,179,179)',#734);
#731=COLOUR_RGB('Steel - Satin',0.627450980392157,0.627450980392157,0.627450980392157);
#732=COLOUR_RGB('Opaque(160,160,160)',0.627450980392157,0.627450980392157,
0.627450980392157);
#733=COLOUR_RGB('Opaque(25,25,25)',0.0980392156862745,0.0980392156862745,
0.0980392156862745);
#734=COLOUR_RGB('Opaque(179,179,179)',0.701960784313725,0.701960784313725,
0.701960784313725);
ENDSEC;
END-ISO-10303-21;
