ISO-10303-21;
HEADER;
/* Generated by software containing ST-Developer
 * from STEP Tools, Inc. (www.steptools.com) 
 */

FILE_DESCRIPTION(
/* description */ (''),
/* implementation_level */ '2;1');

FILE_NAME(
/* name */ 'ReactionWheel.step',
/* time_stamp */ '2023-04-17T10:20:07-06:00',
/* author */ (''),
/* organization */ (''),
/* preprocessor_version */ 'ST-DEVELOPER v19.2',
/* originating_system */ 'Autodesk Translation Framework v12.4.0.73',
/* authorisation */ '');

FILE_SCHEMA (('AUTOMOTIVE_DESIGN { 1 0 10303 214 3 1 1 }'));
ENDSEC;

DATA;
#10=MECHANICAL_DESIGN_GEOMETRIC_PRESENTATION_REPRESENTATION('',(#13),#158);
#11=SHAPE_REPRESENTATION_RELATIONSHIP('SRR','None',#165,#12);
#12=ADVANCED_BREP_SHAPE_REPRESENTATION('',(#14),#157);
#13=STYLED_ITEM('',(#175),#14);
#14=MANIFOLD_SOLID_BREP('Body1',#86);
#15=FACE_BOUND('',#32,.T.);
#16=FACE_BOUND('',#34,.T.);
#17=CIRCLE('',#102,3.00000000000041);
#18=CIRCLE('',#103,3.00000000000041);
#19=CIRCLE('',#105,50.);
#20=CIRCLE('',#106,50.);
#21=CYLINDRICAL_SURFACE('',#101,3.00000000000041);
#22=CYLINDRICAL_SURFACE('',#104,50.);
#23=FACE_OUTER_BOUND('',#28,.T.);
#24=FACE_OUTER_BOUND('',#29,.T.);
#25=FACE_OUTER_BOUND('',#30,.T.);
#26=FACE_OUTER_BOUND('',#31,.T.);
#27=FACE_OUTER_BOUND('',#33,.T.);
#28=EDGE_LOOP('',(#60,#61,#62,#63));
#29=EDGE_LOOP('',(#64,#65,#66,#67));
#30=EDGE_LOOP('',(#68,#69,#70,#71));
#31=EDGE_LOOP('',(#72));
#32=EDGE_LOOP('',(#73,#74));
#33=EDGE_LOOP('',(#75));
#34=EDGE_LOOP('',(#76,#77));
#35=LINE('',#138,#40);
#36=LINE('',#140,#41);
#37=LINE('',#142,#42);
#38=LINE('',#143,#43);
#39=LINE('',#151,#44);
#40=VECTOR('',#113,10.);
#41=VECTOR('',#114,10.);
#42=VECTOR('',#115,10.);
#43=VECTOR('',#116,10.);
#44=VECTOR('',#127,50.);
#45=VERTEX_POINT('',#136);
#46=VERTEX_POINT('',#137);
#47=VERTEX_POINT('',#139);
#48=VERTEX_POINT('',#141);
#49=VERTEX_POINT('',#148);
#50=VERTEX_POINT('',#150);
#51=EDGE_CURVE('',#45,#46,#35,.T.);
#52=EDGE_CURVE('',#45,#47,#36,.T.);
#53=EDGE_CURVE('',#48,#47,#37,.T.);
#54=EDGE_CURVE('',#46,#48,#38,.T.);
#55=EDGE_CURVE('',#46,#45,#17,.T.);
#56=EDGE_CURVE('',#47,#48,#18,.T.);
#57=EDGE_CURVE('',#49,#49,#19,.T.);
#58=EDGE_CURVE('',#49,#50,#39,.T.);
#59=EDGE_CURVE('',#50,#50,#20,.T.);
#60=ORIENTED_EDGE('',*,*,#51,.F.);
#61=ORIENTED_EDGE('',*,*,#52,.T.);
#62=ORIENTED_EDGE('',*,*,#53,.F.);
#63=ORIENTED_EDGE('',*,*,#54,.F.);
#64=ORIENTED_EDGE('',*,*,#55,.F.);
#65=ORIENTED_EDGE('',*,*,#54,.T.);
#66=ORIENTED_EDGE('',*,*,#56,.F.);
#67=ORIENTED_EDGE('',*,*,#52,.F.);
#68=ORIENTED_EDGE('',*,*,#57,.F.);
#69=ORIENTED_EDGE('',*,*,#58,.T.);
#70=ORIENTED_EDGE('',*,*,#59,.F.);
#71=ORIENTED_EDGE('',*,*,#58,.F.);
#72=ORIENTED_EDGE('',*,*,#59,.T.);
#73=ORIENTED_EDGE('',*,*,#53,.T.);
#74=ORIENTED_EDGE('',*,*,#56,.T.);
#75=ORIENTED_EDGE('',*,*,#57,.T.);
#76=ORIENTED_EDGE('',*,*,#51,.T.);
#77=ORIENTED_EDGE('',*,*,#55,.T.);
#78=PLANE('',#100);
#79=PLANE('',#107);
#80=PLANE('',#108);
#81=ADVANCED_FACE('',(#23),#78,.F.);
#82=ADVANCED_FACE('',(#24),#21,.F.);
#83=ADVANCED_FACE('',(#25),#22,.T.);
#84=ADVANCED_FACE('',(#26,#15),#79,.T.);
#85=ADVANCED_FACE('',(#27,#16),#80,.T.);
#86=CLOSED_SHELL('',(#81,#82,#83,#84,#85));
#87=DERIVED_UNIT_ELEMENT(#89,1.);
#88=DERIVED_UNIT_ELEMENT(#160,-3.);
#89=(
MASS_UNIT()
NAMED_UNIT(*)
SI_UNIT(.KILO.,.GRAM.)
);
#90=DERIVED_UNIT((#87,#88));
#91=MEASURE_REPRESENTATION_ITEM('density measure',
POSITIVE_RATIO_MEASURE(7850.),#90);
#92=PROPERTY_DEFINITION_REPRESENTATION(#97,#94);
#93=PROPERTY_DEFINITION_REPRESENTATION(#98,#95);
#94=REPRESENTATION('material name',(#96),#157);
#95=REPRESENTATION('density',(#91),#157);
#96=DESCRIPTIVE_REPRESENTATION_ITEM('Steel','Steel');
#97=PROPERTY_DEFINITION('material property','material name',#167);
#98=PROPERTY_DEFINITION('material property','density of part',#167);
#99=AXIS2_PLACEMENT_3D('',#134,#109,#110);
#100=AXIS2_PLACEMENT_3D('',#135,#111,#112);
#101=AXIS2_PLACEMENT_3D('',#144,#117,#118);
#102=AXIS2_PLACEMENT_3D('',#145,#119,#120);
#103=AXIS2_PLACEMENT_3D('',#146,#121,#122);
#104=AXIS2_PLACEMENT_3D('',#147,#123,#124);
#105=AXIS2_PLACEMENT_3D('',#149,#125,#126);
#106=AXIS2_PLACEMENT_3D('',#152,#128,#129);
#107=AXIS2_PLACEMENT_3D('',#153,#130,#131);
#108=AXIS2_PLACEMENT_3D('',#154,#132,#133);
#109=DIRECTION('axis',(0.,0.,1.));
#110=DIRECTION('refdir',(1.,0.,0.));
#111=DIRECTION('center_axis',(1.,-1.85469933950076E-16,0.));
#112=DIRECTION('ref_axis',(-1.85469933950076E-16,-1.,0.));
#113=DIRECTION('',(-1.85469933950076E-16,-1.,0.));
#114=DIRECTION('',(0.,0.,-1.));
#115=DIRECTION('',(1.85469933950076E-16,1.,0.));
#116=DIRECTION('',(0.,0.,-1.));
#117=DIRECTION('center_axis',(0.,0.,-1.));
#118=DIRECTION('ref_axis',(-1.,9.25185853854171E-17,0.));
#119=DIRECTION('center_axis',(0.,0.,-1.));
#120=DIRECTION('ref_axis',(0.866697932128388,0.498833333333265,0.));
#121=DIRECTION('center_axis',(0.,0.,1.));
#122=DIRECTION('ref_axis',(0.866697932128388,0.498833333333265,0.));
#123=DIRECTION('center_axis',(0.,0.,1.));
#124=DIRECTION('ref_axis',(1.,0.,0.));
#125=DIRECTION('center_axis',(0.,0.,1.));
#126=DIRECTION('ref_axis',(1.,0.,0.));
#127=DIRECTION('',(0.,0.,-1.));
#128=DIRECTION('center_axis',(0.,0.,-1.));
#129=DIRECTION('ref_axis',(1.,0.,0.));
#130=DIRECTION('center_axis',(0.,0.,-1.));
#131=DIRECTION('ref_axis',(-1.,0.,0.));
#132=DIRECTION('center_axis',(0.,0.,1.));
#133=DIRECTION('ref_axis',(1.,0.,0.));
#134=CARTESIAN_POINT('',(0.,0.,0.));
#135=CARTESIAN_POINT('Origin',(2.60009379638552,1.4965,10.));
#136=CARTESIAN_POINT('',(2.60009379638552,1.4965,10.));
#137=CARTESIAN_POINT('',(2.60009379638552,-1.4965,10.));
#138=CARTESIAN_POINT('',(2.60009379638552,0.74825,10.));
#139=CARTESIAN_POINT('',(2.60009379638552,1.4965,0.));
#140=CARTESIAN_POINT('',(2.60009379638552,1.4965,10.));
#141=CARTESIAN_POINT('',(2.60009379638552,-1.4965,0.));
#142=CARTESIAN_POINT('',(2.60009379638552,0.74825,0.));
#143=CARTESIAN_POINT('',(2.60009379638552,-1.4965,10.));
#144=CARTESIAN_POINT('Origin',(0.,0.,10.));
#145=CARTESIAN_POINT('Origin',(0.,0.,10.));
#146=CARTESIAN_POINT('Origin',(0.,0.,0.));
#147=CARTESIAN_POINT('Origin',(0.,0.,5.));
#148=CARTESIAN_POINT('',(-50.,-6.12323399573677E-15,10.));
#149=CARTESIAN_POINT('Origin',(0.,0.,10.));
#150=CARTESIAN_POINT('',(-50.,-6.12323399573677E-15,0.));
#151=CARTESIAN_POINT('',(-50.,-6.12323399573677E-15,5.));
#152=CARTESIAN_POINT('Origin',(0.,0.,0.));
#153=CARTESIAN_POINT('Origin',(0.,0.,0.));
#154=CARTESIAN_POINT('Origin',(0.,0.,10.));
#155=UNCERTAINTY_MEASURE_WITH_UNIT(LENGTH_MEASURE(0.01),#159,
'DISTANCE_ACCURACY_VALUE',
'Maximum model space distance between geometric entities at asserted c
onnectivities');
#156=UNCERTAINTY_MEASURE_WITH_UNIT(LENGTH_MEASURE(0.01),#159,
'DISTANCE_ACCURACY_VALUE',
'Maximum model space distance between geometric entities at asserted c
onnectivities');
#157=(
GEOMETRIC_REPRESENTATION_CONTEXT(3)
GLOBAL_UNCERTAINTY_ASSIGNED_CONTEXT((#155))
GLOBAL_UNIT_ASSIGNED_CONTEXT((#159,#161,#162))
REPRESENTATION_CONTEXT('','3D')
);
#158=(
GEOMETRIC_REPRESENTATION_CONTEXT(3)
GLOBAL_UNCERTAINTY_ASSIGNED_CONTEXT((#156))
GLOBAL_UNIT_ASSIGNED_CONTEXT((#159,#161,#162))
REPRESENTATION_CONTEXT('','3D')
);
#159=(
LENGTH_UNIT()
NAMED_UNIT(*)
SI_UNIT(.MILLI.,.METRE.)
);
#160=(
LENGTH_UNIT()
NAMED_UNIT(*)
SI_UNIT($,.METRE.)
);
#161=(
NAMED_UNIT(*)
PLANE_ANGLE_UNIT()
SI_UNIT($,.RADIAN.)
);
#162=(
NAMED_UNIT(*)
SI_UNIT($,.STERADIAN.)
SOLID_ANGLE_UNIT()
);
#163=SHAPE_DEFINITION_REPRESENTATION(#164,#165);
#164=PRODUCT_DEFINITION_SHAPE('',$,#167);
#165=SHAPE_REPRESENTATION('',(#99),#157);
#166=PRODUCT_DEFINITION_CONTEXT('part definition',#171,'design');
#167=PRODUCT_DEFINITION('ReactionWheel','ReactionWheel v2',#168,#166);
#168=PRODUCT_DEFINITION_FORMATION('',$,#173);
#169=PRODUCT_RELATED_PRODUCT_CATEGORY('ReactionWheel v2',
'ReactionWheel v2',(#173));
#170=APPLICATION_PROTOCOL_DEFINITION('international standard',
'automotive_design',2009,#171);
#171=APPLICATION_CONTEXT(
'Core Data for Automotive Mechanical Design Process');
#172=PRODUCT_CONTEXT('part definition',#171,'mechanical');
#173=PRODUCT('ReactionWheel','ReactionWheel v2',$,(#172));
#174=PRESENTATION_STYLE_ASSIGNMENT((#176));
#175=PRESENTATION_STYLE_ASSIGNMENT((#177));
#176=SURFACE_STYLE_USAGE(.BOTH.,#178);
#177=SURFACE_STYLE_USAGE(.BOTH.,#179);
#178=SURFACE_SIDE_STYLE('',(#180));
#179=SURFACE_SIDE_STYLE('',(#181));
#180=SURFACE_STYLE_FILL_AREA(#182);
#181=SURFACE_STYLE_FILL_AREA(#183);
#182=FILL_AREA_STYLE('Steel - Satin',(#184));
#183=FILL_AREA_STYLE('Steel - Cast',(#185));
#184=FILL_AREA_STYLE_COLOUR('Steel - Satin',#186);
#185=FILL_AREA_STYLE_COLOUR('Steel - Cast',#187);
#186=COLOUR_RGB('Steel - Satin',0.627450980392157,0.627450980392157,0.627450980392157);
#187=COLOUR_RGB('Steel - Cast',0.654901960784314,0.415686274509804,0.203921568627451);
ENDSEC;
END-ISO-10303-21;
