ISO-10303-21;
HEADER;
/* Generated by software containing ST-Developer
 * from STEP Tools, Inc. (www.steptools.com) 
 */

FILE_DESCRIPTION(
/* description */ (''),
/* implementation_level */ '2;1');

FILE_NAME(
/* name */ 'Sphere.step',
/* time_stamp */ '2023-04-17T09:24:29-06:00',
/* author */ (''),
/* organization */ (''),
/* preprocessor_version */ 'ST-DEVELOPER v19.2',
/* originating_system */ 'Autodesk Translation Framework v12.4.0.73',
/* authorisation */ '');

FILE_SCHEMA (('AUTOMOTIVE_DESIGN { 1 0 10303 214 3 1 1 }'));
ENDSEC;

DATA;
#10=MECHANICAL_DESIGN_GEOMETRIC_PRESENTATION_REPRESENTATION('',(#13),#601);
#11=SHAPE_REPRESENTATION_RELATIONSHIP('SRR','None',#608,#12);
#12=ADVANCED_BREP_SHAPE_REPRESENTATION('',(#14),#600);
#13=STYLED_ITEM('',(#618),#14);
#14=MANIFOLD_SOLID_BREP('Body1',#305);
#15=FACE_BOUND('',#71,.T.);
#16=FACE_BOUND('',#72,.T.);
#17=FACE_BOUND('',#73,.T.);
#18=FACE_BOUND('',#74,.T.);
#19=FACE_BOUND('',#76,.T.);
#20=SPHERICAL_SURFACE('',#351,188.5);
#21=SPHERICAL_SURFACE('',#356,200.5);
#22=PLANE('',#321);
#23=PLANE('',#325);
#24=PLANE('',#329);
#25=PLANE('',#333);
#26=PLANE('',#335);
#27=PLANE('',#337);
#28=PLANE('',#339);
#29=PLANE('',#341);
#30=PLANE('',#343);
#31=PLANE('',#345);
#32=PLANE('',#347);
#33=PLANE('',#349);
#34=PLANE('',#354);
#35=FACE_OUTER_BOUND('',#54,.T.);
#36=FACE_OUTER_BOUND('',#55,.T.);
#37=FACE_OUTER_BOUND('',#56,.T.);
#38=FACE_OUTER_BOUND('',#57,.T.);
#39=FACE_OUTER_BOUND('',#58,.T.);
#40=FACE_OUTER_BOUND('',#59,.T.);
#41=FACE_OUTER_BOUND('',#60,.T.);
#42=FACE_OUTER_BOUND('',#61,.T.);
#43=FACE_OUTER_BOUND('',#62,.T.);
#44=FACE_OUTER_BOUND('',#63,.T.);
#45=FACE_OUTER_BOUND('',#64,.T.);
#46=FACE_OUTER_BOUND('',#65,.T.);
#47=FACE_OUTER_BOUND('',#66,.T.);
#48=FACE_OUTER_BOUND('',#67,.T.);
#49=FACE_OUTER_BOUND('',#68,.T.);
#50=FACE_OUTER_BOUND('',#69,.T.);
#51=FACE_OUTER_BOUND('',#70,.T.);
#52=FACE_OUTER_BOUND('',#75,.T.);
#53=FACE_OUTER_BOUND('',#77,.T.);
#54=EDGE_LOOP('',(#202,#203,#204,#205));
#55=EDGE_LOOP('',(#206,#207,#208));
#56=EDGE_LOOP('',(#209,#210,#211,#212));
#57=EDGE_LOOP('',(#213,#214,#215));
#58=EDGE_LOOP('',(#216,#217,#218,#219));
#59=EDGE_LOOP('',(#220,#221,#222));
#60=EDGE_LOOP('',(#223,#224,#225,#226));
#61=EDGE_LOOP('',(#227,#228,#229));
#62=EDGE_LOOP('',(#230,#231,#232));
#63=EDGE_LOOP('',(#233,#234,#235));
#64=EDGE_LOOP('',(#236,#237,#238,#239));
#65=EDGE_LOOP('',(#240,#241,#242,#243));
#66=EDGE_LOOP('',(#244,#245,#246,#247));
#67=EDGE_LOOP('',(#248,#249,#250,#251));
#68=EDGE_LOOP('',(#252,#253,#254));
#69=EDGE_LOOP('',(#255,#256,#257));
#70=EDGE_LOOP('',(#258,#259,#260));
#71=EDGE_LOOP('',(#261,#262,#263,#264));
#72=EDGE_LOOP('',(#265,#266,#267,#268));
#73=EDGE_LOOP('',(#269,#270,#271,#272));
#74=EDGE_LOOP('',(#273,#274,#275,#276));
#75=EDGE_LOOP('',(#277));
#76=EDGE_LOOP('',(#278));
#77=EDGE_LOOP('',(#279,#280,#281));
#78=B_SPLINE_CURVE_WITH_KNOTS('',3,(#462,#463,#464,#465,#466,#467,#468,
#469,#470,#471,#472,#473,#474,#475,#476),.UNSPECIFIED.,.F.,.F.,(4,2,2,3,
2,2,4),(-0.0770243116468521,-0.0749803991888732,-0.0374901995944366,0.,
0.0374901995944366,0.0749803991888732,0.077024311647326),.UNSPECIFIED.);
#79=B_SPLINE_CURVE_WITH_KNOTS('',3,(#489,#490,#491,#492,#493,#494,#495,
#496,#497,#498,#499,#500,#501,#502,#503),.UNSPECIFIED.,.F.,.F.,(4,2,2,3,
2,2,4),(-0.0770243116468529,-0.0749803991888739,-0.037490199594437,0.,0.0374901995944368,
0.0749803991888737,0.0770243116473248),.UNSPECIFIED.);
#80=B_SPLINE_CURVE_WITH_KNOTS('',3,(#516,#517,#518,#519,#520,#521,#522,
#523,#524,#525,#526,#527,#528,#529,#530),.UNSPECIFIED.,.F.,.F.,(4,2,2,3,
2,2,4),(-0.0770243116468532,-0.0749803991888732,-0.0374901995944367,0.,
0.0374901995944366,0.0749803991888732,0.0770243116473271),.UNSPECIFIED.);
#81=B_SPLINE_CURVE_WITH_KNOTS('',3,(#543,#544,#545,#546,#547,#548,#549,
#550,#551,#552,#553,#554,#555,#556,#557),.UNSPECIFIED.,.F.,.F.,(4,2,2,3,
2,2,4),(-0.0770243116468532,-0.0749803991888732,-0.0374901995944366,0.,
0.0374901995944366,0.0749803991888732,0.077024311647327),.UNSPECIFIED.);
#82=LINE('',#460,#98);
#83=LINE('',#477,#99);
#84=LINE('',#480,#100);
#85=LINE('',#487,#101);
#86=LINE('',#504,#102);
#87=LINE('',#507,#103);
#88=LINE('',#514,#104);
#89=LINE('',#531,#105);
#90=LINE('',#535,#106);
#91=LINE('',#541,#107);
#92=LINE('',#558,#108);
#93=LINE('',#562,#109);
#94=LINE('',#565,#110);
#95=LINE('',#569,#111);
#96=LINE('',#577,#112);
#97=LINE('',#581,#113);
#98=VECTOR('',#364,10.);
#99=VECTOR('',#365,10.);
#100=VECTOR('',#368,10.);
#101=VECTOR('',#375,10.);
#102=VECTOR('',#376,10.);
#103=VECTOR('',#379,10.);
#104=VECTOR('',#386,10.);
#105=VECTOR('',#387,10.);
#106=VECTOR('',#392,10.);
#107=VECTOR('',#397,10.);
#108=VECTOR('',#398,10.);
#109=VECTOR('',#403,10.);
#110=VECTOR('',#406,10.);
#111=VECTOR('',#411,10.);
#112=VECTOR('',#424,10.);
#113=VECTOR('',#429,10.);
#114=CIRCLE('',#320,1.);
#115=CIRCLE('',#322,179.516015998573);
#116=CIRCLE('',#324,1.);
#117=CIRCLE('',#326,179.516015998573);
#118=CIRCLE('',#328,1.);
#119=CIRCLE('',#330,179.516015998573);
#120=CIRCLE('',#332,1.);
#121=CIRCLE('',#334,179.516015998573);
#122=CIRCLE('',#336,179.516015998573);
#123=CIRCLE('',#338,179.516015998573);
#124=CIRCLE('',#340,62.0342647252308);
#125=CIRCLE('',#342,62.0342647252308);
#126=CIRCLE('',#344,62.0342647252308);
#127=CIRCLE('',#346,62.0342647252308);
#128=CIRCLE('',#348,179.516015998573);
#129=CIRCLE('',#350,179.516015998573);
#130=CIRCLE('',#352,188.5);
#131=CIRCLE('',#353,188.5);
#132=CIRCLE('',#355,200.5);
#133=CIRCLE('',#357,200.5);
#134=VERTEX_POINT('',#456);
#135=VERTEX_POINT('',#457);
#136=VERTEX_POINT('',#459);
#137=VERTEX_POINT('',#461);
#138=VERTEX_POINT('',#479);
#139=VERTEX_POINT('',#483);
#140=VERTEX_POINT('',#484);
#141=VERTEX_POINT('',#486);
#142=VERTEX_POINT('',#488);
#143=VERTEX_POINT('',#506);
#144=VERTEX_POINT('',#510);
#145=VERTEX_POINT('',#511);
#146=VERTEX_POINT('',#513);
#147=VERTEX_POINT('',#515);
#148=VERTEX_POINT('',#533);
#149=VERTEX_POINT('',#537);
#150=VERTEX_POINT('',#538);
#151=VERTEX_POINT('',#540);
#152=VERTEX_POINT('',#542);
#153=VERTEX_POINT('',#560);
#154=VERTEX_POINT('',#564);
#155=VERTEX_POINT('',#568);
#156=VERTEX_POINT('',#576);
#157=VERTEX_POINT('',#580);
#158=VERTEX_POINT('',#588);
#159=VERTEX_POINT('',#590);
#160=VERTEX_POINT('',#593);
#161=VERTEX_POINT('',#596);
#162=EDGE_CURVE('',#134,#135,#114,.T.);
#163=EDGE_CURVE('',#134,#136,#82,.T.);
#164=EDGE_CURVE('',#136,#137,#78,.T.);
#165=EDGE_CURVE('',#137,#135,#83,.T.);
#166=EDGE_CURVE('',#134,#138,#84,.T.);
#167=EDGE_CURVE('',#136,#138,#115,.T.);
#168=EDGE_CURVE('',#139,#140,#116,.T.);
#169=EDGE_CURVE('',#139,#141,#85,.T.);
#170=EDGE_CURVE('',#141,#142,#79,.T.);
#171=EDGE_CURVE('',#142,#140,#86,.T.);
#172=EDGE_CURVE('',#139,#143,#87,.T.);
#173=EDGE_CURVE('',#141,#143,#117,.T.);
#174=EDGE_CURVE('',#144,#145,#118,.T.);
#175=EDGE_CURVE('',#144,#146,#88,.T.);
#176=EDGE_CURVE('',#146,#147,#80,.T.);
#177=EDGE_CURVE('',#147,#145,#89,.T.);
#178=EDGE_CURVE('',#148,#147,#119,.T.);
#179=EDGE_CURVE('',#148,#145,#90,.T.);
#180=EDGE_CURVE('',#149,#150,#120,.T.);
#181=EDGE_CURVE('',#149,#151,#91,.T.);
#182=EDGE_CURVE('',#151,#152,#81,.T.);
#183=EDGE_CURVE('',#152,#150,#92,.T.);
#184=EDGE_CURVE('',#153,#152,#121,.T.);
#185=EDGE_CURVE('',#153,#150,#93,.T.);
#186=EDGE_CURVE('',#144,#154,#94,.T.);
#187=EDGE_CURVE('',#146,#154,#122,.T.);
#188=EDGE_CURVE('',#149,#155,#95,.T.);
#189=EDGE_CURVE('',#151,#155,#123,.T.);
#190=EDGE_CURVE('',#154,#148,#124,.T.);
#191=EDGE_CURVE('',#155,#153,#125,.T.);
#192=EDGE_CURVE('',#156,#135,#96,.T.);
#193=EDGE_CURVE('',#138,#156,#126,.T.);
#194=EDGE_CURVE('',#157,#140,#97,.T.);
#195=EDGE_CURVE('',#143,#157,#127,.T.);
#196=EDGE_CURVE('',#156,#137,#128,.T.);
#197=EDGE_CURVE('',#157,#142,#129,.T.);
#198=EDGE_CURVE('',#158,#158,#130,.T.);
#199=EDGE_CURVE('',#158,#159,#131,.T.);
#200=EDGE_CURVE('',#160,#160,#132,.T.);
#201=EDGE_CURVE('',#160,#161,#133,.T.);
#202=ORIENTED_EDGE('',*,*,#162,.F.);
#203=ORIENTED_EDGE('',*,*,#163,.T.);
#204=ORIENTED_EDGE('',*,*,#164,.T.);
#205=ORIENTED_EDGE('',*,*,#165,.T.);
#206=ORIENTED_EDGE('',*,*,#163,.F.);
#207=ORIENTED_EDGE('',*,*,#166,.T.);
#208=ORIENTED_EDGE('',*,*,#167,.F.);
#209=ORIENTED_EDGE('',*,*,#168,.F.);
#210=ORIENTED_EDGE('',*,*,#169,.T.);
#211=ORIENTED_EDGE('',*,*,#170,.T.);
#212=ORIENTED_EDGE('',*,*,#171,.T.);
#213=ORIENTED_EDGE('',*,*,#169,.F.);
#214=ORIENTED_EDGE('',*,*,#172,.T.);
#215=ORIENTED_EDGE('',*,*,#173,.F.);
#216=ORIENTED_EDGE('',*,*,#174,.F.);
#217=ORIENTED_EDGE('',*,*,#175,.T.);
#218=ORIENTED_EDGE('',*,*,#176,.T.);
#219=ORIENTED_EDGE('',*,*,#177,.T.);
#220=ORIENTED_EDGE('',*,*,#177,.F.);
#221=ORIENTED_EDGE('',*,*,#178,.F.);
#222=ORIENTED_EDGE('',*,*,#179,.T.);
#223=ORIENTED_EDGE('',*,*,#180,.F.);
#224=ORIENTED_EDGE('',*,*,#181,.T.);
#225=ORIENTED_EDGE('',*,*,#182,.T.);
#226=ORIENTED_EDGE('',*,*,#183,.T.);
#227=ORIENTED_EDGE('',*,*,#183,.F.);
#228=ORIENTED_EDGE('',*,*,#184,.F.);
#229=ORIENTED_EDGE('',*,*,#185,.T.);
#230=ORIENTED_EDGE('',*,*,#175,.F.);
#231=ORIENTED_EDGE('',*,*,#186,.T.);
#232=ORIENTED_EDGE('',*,*,#187,.F.);
#233=ORIENTED_EDGE('',*,*,#181,.F.);
#234=ORIENTED_EDGE('',*,*,#188,.T.);
#235=ORIENTED_EDGE('',*,*,#189,.F.);
#236=ORIENTED_EDGE('',*,*,#174,.T.);
#237=ORIENTED_EDGE('',*,*,#179,.F.);
#238=ORIENTED_EDGE('',*,*,#190,.F.);
#239=ORIENTED_EDGE('',*,*,#186,.F.);
#240=ORIENTED_EDGE('',*,*,#180,.T.);
#241=ORIENTED_EDGE('',*,*,#185,.F.);
#242=ORIENTED_EDGE('',*,*,#191,.F.);
#243=ORIENTED_EDGE('',*,*,#188,.F.);
#244=ORIENTED_EDGE('',*,*,#162,.T.);
#245=ORIENTED_EDGE('',*,*,#192,.F.);
#246=ORIENTED_EDGE('',*,*,#193,.F.);
#247=ORIENTED_EDGE('',*,*,#166,.F.);
#248=ORIENTED_EDGE('',*,*,#168,.T.);
#249=ORIENTED_EDGE('',*,*,#194,.F.);
#250=ORIENTED_EDGE('',*,*,#195,.F.);
#251=ORIENTED_EDGE('',*,*,#172,.F.);
#252=ORIENTED_EDGE('',*,*,#165,.F.);
#253=ORIENTED_EDGE('',*,*,#196,.F.);
#254=ORIENTED_EDGE('',*,*,#192,.T.);
#255=ORIENTED_EDGE('',*,*,#171,.F.);
#256=ORIENTED_EDGE('',*,*,#197,.F.);
#257=ORIENTED_EDGE('',*,*,#194,.T.);
#258=ORIENTED_EDGE('',*,*,#198,.F.);
#259=ORIENTED_EDGE('',*,*,#199,.T.);
#260=ORIENTED_EDGE('',*,*,#199,.F.);
#261=ORIENTED_EDGE('',*,*,#197,.T.);
#262=ORIENTED_EDGE('',*,*,#170,.F.);
#263=ORIENTED_EDGE('',*,*,#173,.T.);
#264=ORIENTED_EDGE('',*,*,#195,.T.);
#265=ORIENTED_EDGE('',*,*,#187,.T.);
#266=ORIENTED_EDGE('',*,*,#190,.T.);
#267=ORIENTED_EDGE('',*,*,#178,.T.);
#268=ORIENTED_EDGE('',*,*,#176,.F.);
#269=ORIENTED_EDGE('',*,*,#189,.T.);
#270=ORIENTED_EDGE('',*,*,#191,.T.);
#271=ORIENTED_EDGE('',*,*,#184,.T.);
#272=ORIENTED_EDGE('',*,*,#182,.F.);
#273=ORIENTED_EDGE('',*,*,#167,.T.);
#274=ORIENTED_EDGE('',*,*,#193,.T.);
#275=ORIENTED_EDGE('',*,*,#196,.T.);
#276=ORIENTED_EDGE('',*,*,#164,.F.);
#277=ORIENTED_EDGE('',*,*,#200,.F.);
#278=ORIENTED_EDGE('',*,*,#198,.T.);
#279=ORIENTED_EDGE('',*,*,#200,.T.);
#280=ORIENTED_EDGE('',*,*,#201,.T.);
#281=ORIENTED_EDGE('',*,*,#201,.F.);
#282=CYLINDRICAL_SURFACE('',#319,1.);
#283=CYLINDRICAL_SURFACE('',#323,1.);
#284=CYLINDRICAL_SURFACE('',#327,1.);
#285=CYLINDRICAL_SURFACE('',#331,1.);
#286=ADVANCED_FACE('',(#35),#282,.F.);
#287=ADVANCED_FACE('',(#36),#22,.F.);
#288=ADVANCED_FACE('',(#37),#283,.F.);
#289=ADVANCED_FACE('',(#38),#23,.F.);
#290=ADVANCED_FACE('',(#39),#284,.F.);
#291=ADVANCED_FACE('',(#40),#24,.F.);
#292=ADVANCED_FACE('',(#41),#285,.F.);
#293=ADVANCED_FACE('',(#42),#25,.F.);
#294=ADVANCED_FACE('',(#43),#26,.F.);
#295=ADVANCED_FACE('',(#44),#27,.F.);
#296=ADVANCED_FACE('',(#45),#28,.F.);
#297=ADVANCED_FACE('',(#46),#29,.F.);
#298=ADVANCED_FACE('',(#47),#30,.F.);
#299=ADVANCED_FACE('',(#48),#31,.F.);
#300=ADVANCED_FACE('',(#49),#32,.F.);
#301=ADVANCED_FACE('',(#50),#33,.F.);
#302=ADVANCED_FACE('',(#51,#15,#16,#17,#18),#20,.F.);
#303=ADVANCED_FACE('',(#52,#19),#34,.T.);
#304=ADVANCED_FACE('',(#53),#21,.T.);
#305=CLOSED_SHELL('',(#286,#287,#288,#289,#290,#291,#292,#293,#294,#295,
#296,#297,#298,#299,#300,#301,#302,#303,#304));
#306=DERIVED_UNIT_ELEMENT(#308,1.);
#307=DERIVED_UNIT_ELEMENT(#603,-3.);
#308=(
MASS_UNIT()
NAMED_UNIT(*)
SI_UNIT(.KILO.,.GRAM.)
);
#309=DERIVED_UNIT((#306,#307));
#310=MEASURE_REPRESENTATION_ITEM('density measure',
POSITIVE_RATIO_MEASURE(7850.),#309);
#311=PROPERTY_DEFINITION_REPRESENTATION(#316,#313);
#312=PROPERTY_DEFINITION_REPRESENTATION(#317,#314);
#313=REPRESENTATION('material name',(#315),#600);
#314=REPRESENTATION('density',(#310),#600);
#315=DESCRIPTIVE_REPRESENTATION_ITEM('Steel','Steel');
#316=PROPERTY_DEFINITION('material property','material name',#610);
#317=PROPERTY_DEFINITION('material property','density of part',#610);
#318=AXIS2_PLACEMENT_3D('',#454,#358,#359);
#319=AXIS2_PLACEMENT_3D('',#455,#360,#361);
#320=AXIS2_PLACEMENT_3D('',#458,#362,#363);
#321=AXIS2_PLACEMENT_3D('',#478,#366,#367);
#322=AXIS2_PLACEMENT_3D('',#481,#369,#370);
#323=AXIS2_PLACEMENT_3D('',#482,#371,#372);
#324=AXIS2_PLACEMENT_3D('',#485,#373,#374);
#325=AXIS2_PLACEMENT_3D('',#505,#377,#378);
#326=AXIS2_PLACEMENT_3D('',#508,#380,#381);
#327=AXIS2_PLACEMENT_3D('',#509,#382,#383);
#328=AXIS2_PLACEMENT_3D('',#512,#384,#385);
#329=AXIS2_PLACEMENT_3D('',#532,#388,#389);
#330=AXIS2_PLACEMENT_3D('',#534,#390,#391);
#331=AXIS2_PLACEMENT_3D('',#536,#393,#394);
#332=AXIS2_PLACEMENT_3D('',#539,#395,#396);
#333=AXIS2_PLACEMENT_3D('',#559,#399,#400);
#334=AXIS2_PLACEMENT_3D('',#561,#401,#402);
#335=AXIS2_PLACEMENT_3D('',#563,#404,#405);
#336=AXIS2_PLACEMENT_3D('',#566,#407,#408);
#337=AXIS2_PLACEMENT_3D('',#567,#409,#410);
#338=AXIS2_PLACEMENT_3D('',#570,#412,#413);
#339=AXIS2_PLACEMENT_3D('',#571,#414,#415);
#340=AXIS2_PLACEMENT_3D('',#572,#416,#417);
#341=AXIS2_PLACEMENT_3D('',#573,#418,#419);
#342=AXIS2_PLACEMENT_3D('',#574,#420,#421);
#343=AXIS2_PLACEMENT_3D('',#575,#422,#423);
#344=AXIS2_PLACEMENT_3D('',#578,#425,#426);
#345=AXIS2_PLACEMENT_3D('',#579,#427,#428);
#346=AXIS2_PLACEMENT_3D('',#582,#430,#431);
#347=AXIS2_PLACEMENT_3D('',#583,#432,#433);
#348=AXIS2_PLACEMENT_3D('',#584,#434,#435);
#349=AXIS2_PLACEMENT_3D('',#585,#436,#437);
#350=AXIS2_PLACEMENT_3D('',#586,#438,#439);
#351=AXIS2_PLACEMENT_3D('',#587,#440,#441);
#352=AXIS2_PLACEMENT_3D('',#589,#442,#443);
#353=AXIS2_PLACEMENT_3D('',#591,#444,#445);
#354=AXIS2_PLACEMENT_3D('',#592,#446,#447);
#355=AXIS2_PLACEMENT_3D('',#594,#448,#449);
#356=AXIS2_PLACEMENT_3D('',#595,#450,#451);
#357=AXIS2_PLACEMENT_3D('',#597,#452,#453);
#358=DIRECTION('axis',(0.,0.,1.));
#359=DIRECTION('refdir',(1.,0.,0.));
#360=DIRECTION('center_axis',(0.,0.,-1.));
#361=DIRECTION('ref_axis',(-0.707106781186548,-0.707106781186548,0.));
#362=DIRECTION('center_axis',(0.,0.,1.));
#363=DIRECTION('ref_axis',(-0.707106781186548,-0.707106781186548,0.));
#364=DIRECTION('',(0.,0.,1.));
#365=DIRECTION('',(0.,0.,-1.));
#366=DIRECTION('center_axis',(-1.,0.,0.));
#367=DIRECTION('ref_axis',(0.,1.,0.));
#368=DIRECTION('',(0.,1.,0.));
#369=DIRECTION('center_axis',(1.,0.,0.));
#370=DIRECTION('ref_axis',(0.,0.,-1.));
#371=DIRECTION('center_axis',(0.,0.,-1.));
#372=DIRECTION('ref_axis',(0.707106781186554,-0.707106781186541,0.));
#373=DIRECTION('center_axis',(0.,0.,1.));
#374=DIRECTION('ref_axis',(0.707106781186554,-0.707106781186541,0.));
#375=DIRECTION('',(0.,0.,1.));
#376=DIRECTION('',(0.,0.,-1.));
#377=DIRECTION('center_axis',(0.,-1.,0.));
#378=DIRECTION('ref_axis',(-1.,0.,0.));
#379=DIRECTION('',(-1.,0.,0.));
#380=DIRECTION('center_axis',(0.,1.,0.));
#381=DIRECTION('ref_axis',(0.,0.,1.));
#382=DIRECTION('center_axis',(0.,0.,-1.));
#383=DIRECTION('ref_axis',(0.707106781186548,0.707106781186548,0.));
#384=DIRECTION('center_axis',(0.,0.,1.));
#385=DIRECTION('ref_axis',(0.707106781186548,0.707106781186548,0.));
#386=DIRECTION('',(0.,0.,1.));
#387=DIRECTION('',(0.,0.,-1.));
#388=DIRECTION('center_axis',(0.,1.,0.));
#389=DIRECTION('ref_axis',(1.,0.,0.));
#390=DIRECTION('center_axis',(0.,-1.,0.));
#391=DIRECTION('ref_axis',(0.,0.,-1.));
#392=DIRECTION('',(1.,0.,0.));
#393=DIRECTION('center_axis',(0.,0.,-1.));
#394=DIRECTION('ref_axis',(-0.707106781186548,0.707106781186548,0.));
#395=DIRECTION('center_axis',(0.,0.,1.));
#396=DIRECTION('ref_axis',(-0.707106781186548,0.707106781186548,0.));
#397=DIRECTION('',(0.,0.,1.));
#398=DIRECTION('',(0.,0.,-1.));
#399=DIRECTION('center_axis',(-1.,0.,0.));
#400=DIRECTION('ref_axis',(0.,1.,0.));
#401=DIRECTION('center_axis',(1.,0.,0.));
#402=DIRECTION('ref_axis',(0.,0.,-1.));
#403=DIRECTION('',(0.,1.,0.));
#404=DIRECTION('center_axis',(1.,0.,0.));
#405=DIRECTION('ref_axis',(0.,-1.,0.));
#406=DIRECTION('',(0.,-1.,0.));
#407=DIRECTION('center_axis',(-1.,0.,0.));
#408=DIRECTION('ref_axis',(0.,0.,1.));
#409=DIRECTION('center_axis',(0.,1.,0.));
#410=DIRECTION('ref_axis',(1.,0.,0.));
#411=DIRECTION('',(1.,0.,0.));
#412=DIRECTION('center_axis',(0.,-1.,0.));
#413=DIRECTION('ref_axis',(0.,0.,-1.));
#414=DIRECTION('center_axis',(0.,0.,-1.));
#415=DIRECTION('ref_axis',(-1.,0.,0.));
#416=DIRECTION('center_axis',(0.,0.,1.));
#417=DIRECTION('ref_axis',(0.,-1.,0.));
#418=DIRECTION('center_axis',(0.,0.,-1.));
#419=DIRECTION('ref_axis',(-1.,0.,0.));
#420=DIRECTION('center_axis',(0.,0.,1.));
#421=DIRECTION('ref_axis',(0.,-1.,0.));
#422=DIRECTION('center_axis',(0.,0.,-1.));
#423=DIRECTION('ref_axis',(-1.,0.,0.));
#424=DIRECTION('',(-1.,0.,0.));
#425=DIRECTION('center_axis',(0.,0.,1.));
#426=DIRECTION('ref_axis',(0.,-1.,0.));
#427=DIRECTION('center_axis',(0.,0.,-1.));
#428=DIRECTION('ref_axis',(-1.,0.,0.));
#429=DIRECTION('',(0.,-1.,0.));
#430=DIRECTION('center_axis',(0.,0.,1.));
#431=DIRECTION('ref_axis',(0.,-1.,0.));
#432=DIRECTION('center_axis',(0.,-1.,0.));
#433=DIRECTION('ref_axis',(-1.,0.,0.));
#434=DIRECTION('center_axis',(0.,1.,0.));
#435=DIRECTION('ref_axis',(0.,0.,1.));
#436=DIRECTION('center_axis',(1.,0.,0.));
#437=DIRECTION('ref_axis',(0.,-1.,0.));
#438=DIRECTION('center_axis',(-1.,0.,0.));
#439=DIRECTION('ref_axis',(0.,0.,1.));
#440=DIRECTION('center_axis',(6.12323399573677E-17,0.,1.));
#441=DIRECTION('ref_axis',(1.,0.,0.));
#442=DIRECTION('center_axis',(0.,0.,-1.));
#443=DIRECTION('ref_axis',(1.,0.,0.));
#444=DIRECTION('center_axis',(1.22464679914735E-16,-1.,0.));
#445=DIRECTION('ref_axis',(-1.,-1.22464679914735E-16,0.));
#446=DIRECTION('center_axis',(0.,0.,1.));
#447=DIRECTION('ref_axis',(1.,0.,0.));
#448=DIRECTION('center_axis',(0.,0.,-1.));
#449=DIRECTION('ref_axis',(1.,0.,0.));
#450=DIRECTION('center_axis',(6.12323399573677E-17,0.,1.));
#451=DIRECTION('ref_axis',(1.,0.,0.));
#452=DIRECTION('center_axis',(1.22464679914735E-16,-1.,0.));
#453=DIRECTION('ref_axis',(-1.,-1.22464679914735E-16,0.));
#454=CARTESIAN_POINT('',(0.,0.,0.));
#455=CARTESIAN_POINT('Origin',(-56.5,-56.5,200.5));
#456=CARTESIAN_POINT('',(-57.5,-56.5,22.5));
#457=CARTESIAN_POINT('',(-56.5,-57.5,22.5));
#458=CARTESIAN_POINT('Origin',(-56.5,-56.5,22.5));
#459=CARTESIAN_POINT('',(-57.5,-56.5,30.1070717429857));
#460=CARTESIAN_POINT('',(-57.5,-56.5,200.5));
#461=CARTESIAN_POINT('',(-56.5,-57.5,30.1070717429857));
#462=CARTESIAN_POINT('Ctrl Pts',(-57.5,-56.5,30.1070717429857));
#463=CARTESIAN_POINT('Ctrl Pts',(-57.5,-56.5065056206123,30.109228919157));
#464=CARTESIAN_POINT('Ctrl Pts',(-57.4999365068128,-56.5129985960529,30.1113608898393));
#465=CARTESIAN_POINT('Ctrl Pts',(-57.4974955997742,-56.6382995877878,30.1521011682503));
#466=CARTESIAN_POINT('Ctrl Pts',(-57.4723758792817,-56.7673238013466,30.1865699074114));
#467=CARTESIAN_POINT('Ctrl Pts',(-57.3714120743841,-57.0075606945087,30.2327788124427));
#468=CARTESIAN_POINT('Ctrl Pts',(-57.2954720290574,-57.1187415333157,30.2444747814278));
#469=CARTESIAN_POINT('Ctrl Pts',(-57.2071067811866,-57.2071067811866,30.2444747814278));
#470=CARTESIAN_POINT('Ctrl Pts',(-57.1187415333157,-57.2954720290574,30.2444747814278));
#471=CARTESIAN_POINT('Ctrl Pts',(-57.0075606945087,-57.3714120743842,30.2327788124427));
#472=CARTESIAN_POINT('Ctrl Pts',(-56.7673238013465,-57.4723758792817,30.1865699074114));
#473=CARTESIAN_POINT('Ctrl Pts',(-56.6382995877878,-57.4974955997742,30.1521011682503));
#474=CARTESIAN_POINT('Ctrl Pts',(-56.5129985960514,-57.4999365068129,30.1113608898388));
#475=CARTESIAN_POINT('Ctrl Pts',(-56.5065056206109,-57.5,30.1092289191565));
#476=CARTESIAN_POINT('Ctrl Pts',(-56.5,-57.5,30.1070717429857));
#477=CARTESIAN_POINT('',(-56.5,-57.5,200.5));
#478=CARTESIAN_POINT('Origin',(-57.5,-57.5,200.5));
#479=CARTESIAN_POINT('',(-57.5,-23.2808934536461,22.5));
#480=CARTESIAN_POINT('',(-57.5,-57.5,22.5));
#481=CARTESIAN_POINT('Origin',(-57.5,3.49357491205784E-14,200.5));
#482=CARTESIAN_POINT('Origin',(56.5,-56.5,200.5));
#483=CARTESIAN_POINT('',(56.5,-57.5,22.5));
#484=CARTESIAN_POINT('',(57.5,-56.5,22.5));
#485=CARTESIAN_POINT('Origin',(56.5,-56.5,22.5));
#486=CARTESIAN_POINT('',(56.5,-57.5,30.1070717429857));
#487=CARTESIAN_POINT('',(56.5,-57.5,200.5));
#488=CARTESIAN_POINT('',(57.5,-56.5,30.1070717429857));
#489=CARTESIAN_POINT('Ctrl Pts',(56.5,-57.5,30.1070717429857));
#490=CARTESIAN_POINT('Ctrl Pts',(56.5065056206123,-57.5,30.109228919157));
#491=CARTESIAN_POINT('Ctrl Pts',(56.5129985960529,-57.4999365068128,30.1113608898393));
#492=CARTESIAN_POINT('Ctrl Pts',(56.6382995877878,-57.4974955997743,30.1521011682503));
#493=CARTESIAN_POINT('Ctrl Pts',(56.7673238013465,-57.4723758792817,30.1865699074114));
#494=CARTESIAN_POINT('Ctrl Pts',(57.0075606945087,-57.3714120743842,30.2327788124427));
#495=CARTESIAN_POINT('Ctrl Pts',(57.1187415333157,-57.2954720290574,30.2444747814278));
#496=CARTESIAN_POINT('Ctrl Pts',(57.2071067811866,-57.2071067811866,30.2444747814278));
#497=CARTESIAN_POINT('Ctrl Pts',(57.2954720290574,-57.1187415333157,30.2444747814278));
#498=CARTESIAN_POINT('Ctrl Pts',(57.3714120743841,-57.0075606945087,30.2327788124427));
#499=CARTESIAN_POINT('Ctrl Pts',(57.4723758792817,-56.7673238013465,30.1865699074114));
#500=CARTESIAN_POINT('Ctrl Pts',(57.4974955997742,-56.6382995877878,30.1521011682503));
#501=CARTESIAN_POINT('Ctrl Pts',(57.4999365068128,-56.5129985960514,30.1113608898388));
#502=CARTESIAN_POINT('Ctrl Pts',(57.5,-56.5065056206109,30.1092289191565));
#503=CARTESIAN_POINT('Ctrl Pts',(57.5,-56.5,30.1070717429857));
#504=CARTESIAN_POINT('',(57.5,-56.5,200.5));
#505=CARTESIAN_POINT('Origin',(57.5,-57.5,200.5));
#506=CARTESIAN_POINT('',(23.2808934536459,-57.5,22.5));
#507=CARTESIAN_POINT('',(57.5,-57.5,22.5));
#508=CARTESIAN_POINT('Origin',(0.,-57.5,200.5));
#509=CARTESIAN_POINT('Origin',(56.5,56.5,200.5));
#510=CARTESIAN_POINT('',(57.5,56.5,22.5));
#511=CARTESIAN_POINT('',(56.5,57.5,22.5));
#512=CARTESIAN_POINT('Origin',(56.5,56.5,22.5));
#513=CARTESIAN_POINT('',(57.5,56.5,30.1070717429857));
#514=CARTESIAN_POINT('',(57.5,56.5,200.5));
#515=CARTESIAN_POINT('',(56.5,57.5,30.1070717429857));
#516=CARTESIAN_POINT('Ctrl Pts',(57.5,56.5,30.1070717429857));
#517=CARTESIAN_POINT('Ctrl Pts',(57.5,56.5065056206123,30.109228919157));
#518=CARTESIAN_POINT('Ctrl Pts',(57.4999365068128,56.5129985960529,30.1113608898393));
#519=CARTESIAN_POINT('Ctrl Pts',(57.4974955997742,56.6382995877878,30.1521011682503));
#520=CARTESIAN_POINT('Ctrl Pts',(57.4723758792817,56.7673238013465,30.1865699074114));
#521=CARTESIAN_POINT('Ctrl Pts',(57.3714120743841,57.0075606945087,30.2327788124427));
#522=CARTESIAN_POINT('Ctrl Pts',(57.2954720290574,57.1187415333157,30.2444747814278));
#523=CARTESIAN_POINT('Ctrl Pts',(57.2071067811866,57.2071067811866,30.2444747814278));
#524=CARTESIAN_POINT('Ctrl Pts',(57.1187415333157,57.2954720290574,30.2444747814278));
#525=CARTESIAN_POINT('Ctrl Pts',(57.0075606945087,57.3714120743841,30.2327788124427));
#526=CARTESIAN_POINT('Ctrl Pts',(56.7673238013466,57.4723758792817,30.1865699074114));
#527=CARTESIAN_POINT('Ctrl Pts',(56.6382995877878,57.4974955997742,30.1521011682503));
#528=CARTESIAN_POINT('Ctrl Pts',(56.5129985960514,57.4999365068129,30.1113608898388));
#529=CARTESIAN_POINT('Ctrl Pts',(56.5065056206109,57.5,30.1092289191565));
#530=CARTESIAN_POINT('Ctrl Pts',(56.5,57.5,30.1070717429857));
#531=CARTESIAN_POINT('',(56.5,57.5,200.5));
#532=CARTESIAN_POINT('Origin',(-57.5,57.5,200.5));
#533=CARTESIAN_POINT('',(23.2808934536462,57.5,22.5));
#534=CARTESIAN_POINT('Origin',(0.,57.5,200.5));
#535=CARTESIAN_POINT('',(-57.5,57.5,22.5));
#536=CARTESIAN_POINT('Origin',(-56.5,56.5,200.5));
#537=CARTESIAN_POINT('',(-56.5,57.5,22.5));
#538=CARTESIAN_POINT('',(-57.5,56.5,22.5));
#539=CARTESIAN_POINT('Origin',(-56.5,56.5,22.5));
#540=CARTESIAN_POINT('',(-56.5,57.5,30.1070717429857));
#541=CARTESIAN_POINT('',(-56.5,57.5,200.5));
#542=CARTESIAN_POINT('',(-57.5,56.5,30.1070717429857));
#543=CARTESIAN_POINT('Ctrl Pts',(-56.5,57.5,30.1070717429857));
#544=CARTESIAN_POINT('Ctrl Pts',(-56.5065056206123,57.5,30.109228919157));
#545=CARTESIAN_POINT('Ctrl Pts',(-56.5129985960529,57.4999365068128,30.1113608898393));
#546=CARTESIAN_POINT('Ctrl Pts',(-56.6382995877878,57.4974955997742,30.1521011682503));
#547=CARTESIAN_POINT('Ctrl Pts',(-56.7673238013466,57.4723758792817,30.1865699074114));
#548=CARTESIAN_POINT('Ctrl Pts',(-57.0075606945087,57.3714120743841,30.2327788124427));
#549=CARTESIAN_POINT('Ctrl Pts',(-57.1187415333157,57.2954720290574,30.2444747814278));
#550=CARTESIAN_POINT('Ctrl Pts',(-57.2071067811866,57.2071067811866,30.2444747814278));
#551=CARTESIAN_POINT('Ctrl Pts',(-57.2954720290574,57.1187415333157,30.2444747814278));
#552=CARTESIAN_POINT('Ctrl Pts',(-57.3714120743841,57.0075606945087,30.2327788124427));
#553=CARTESIAN_POINT('Ctrl Pts',(-57.4723758792817,56.7673238013465,30.1865699074114));
#554=CARTESIAN_POINT('Ctrl Pts',(-57.4974955997742,56.6382995877878,30.1521011682503));
#555=CARTESIAN_POINT('Ctrl Pts',(-57.4999365068128,56.5129985960514,30.1113608898388));
#556=CARTESIAN_POINT('Ctrl Pts',(-57.5,56.5065056206109,30.1092289191565));
#557=CARTESIAN_POINT('Ctrl Pts',(-57.5,56.5,30.1070717429857));
#558=CARTESIAN_POINT('',(-57.5,56.5,200.5));
#559=CARTESIAN_POINT('Origin',(-57.5,-57.5,200.5));
#560=CARTESIAN_POINT('',(-57.5,23.2808934536462,22.5));
#561=CARTESIAN_POINT('Origin',(-57.5,3.49357491205784E-14,200.5));
#562=CARTESIAN_POINT('',(-57.5,-57.5,22.5));
#563=CARTESIAN_POINT('Origin',(57.5,57.5,200.5));
#564=CARTESIAN_POINT('',(57.5,23.2808934536462,22.5));
#565=CARTESIAN_POINT('',(57.5,57.5,22.5));
#566=CARTESIAN_POINT('Origin',(57.5,3.49357491205784E-14,200.5));
#567=CARTESIAN_POINT('Origin',(-57.5,57.5,200.5));
#568=CARTESIAN_POINT('',(-23.2808934536462,57.5,22.5));
#569=CARTESIAN_POINT('',(-57.5,57.5,22.5));
#570=CARTESIAN_POINT('Origin',(0.,57.5,200.5));
#571=CARTESIAN_POINT('Origin',(0.,0.,22.5));
#572=CARTESIAN_POINT('Origin',(0.,3.49357491205784E-14,22.5));
#573=CARTESIAN_POINT('Origin',(0.,0.,22.5));
#574=CARTESIAN_POINT('Origin',(0.,3.49357491205784E-14,22.5));
#575=CARTESIAN_POINT('Origin',(0.,0.,22.5));
#576=CARTESIAN_POINT('',(-23.2808934536459,-57.5,22.5));
#577=CARTESIAN_POINT('',(57.5,-57.5,22.5));
#578=CARTESIAN_POINT('Origin',(0.,3.49357491205784E-14,22.5));
#579=CARTESIAN_POINT('Origin',(0.,0.,22.5));
#580=CARTESIAN_POINT('',(57.5,-23.2808934536461,22.5));
#581=CARTESIAN_POINT('',(57.5,57.5,22.5));
#582=CARTESIAN_POINT('Origin',(0.,3.49357491205784E-14,22.5));
#583=CARTESIAN_POINT('Origin',(57.5,-57.5,200.5));
#584=CARTESIAN_POINT('Origin',(0.,-57.5,200.5));
#585=CARTESIAN_POINT('Origin',(57.5,57.5,200.5));
#586=CARTESIAN_POINT('Origin',(57.5,3.49357491205784E-14,200.5));
#587=CARTESIAN_POINT('Origin',(0.,3.49357491205784E-14,200.5));
#588=CARTESIAN_POINT('',(-188.5,1.18511569566507E-14,200.5));
#589=CARTESIAN_POINT('Origin',(0.,0.,200.5));
#590=CARTESIAN_POINT('',(-1.15422960819638E-14,3.49357491205784E-14,11.9999999999999));
#591=CARTESIAN_POINT('Origin',(0.,3.49357491205784E-14,200.5));
#592=CARTESIAN_POINT('Origin',(0.,200.5,200.5));
#593=CARTESIAN_POINT('',(-200.5,-8.34602004107133E-14,200.5));
#594=CARTESIAN_POINT('Origin',(0.,0.,200.5));
#595=CARTESIAN_POINT('Origin',(0.,-5.89060320878089E-14,200.5));
#596=CARTESIAN_POINT('',(-1.22770841614522E-14,-5.89060320878089E-14,-7.105427357601E-14));
#597=CARTESIAN_POINT('Origin',(0.,-5.89060320878089E-14,200.5));
#598=UNCERTAINTY_MEASURE_WITH_UNIT(LENGTH_MEASURE(0.01),#602,
'DISTANCE_ACCURACY_VALUE',
'Maximum model space distance between geometric entities at asserted c
onnectivities');
#599=UNCERTAINTY_MEASURE_WITH_UNIT(LENGTH_MEASURE(0.01),#602,
'DISTANCE_ACCURACY_VALUE',
'Maximum model space distance between geometric entities at asserted c
onnectivities');
#600=(
GEOMETRIC_REPRESENTATION_CONTEXT(3)
GLOBAL_UNCERTAINTY_ASSIGNED_CONTEXT((#598))
GLOBAL_UNIT_ASSIGNED_CONTEXT((#602,#604,#605))
REPRESENTATION_CONTEXT('','3D')
);
#601=(
GEOMETRIC_REPRESENTATION_CONTEXT(3)
GLOBAL_UNCERTAINTY_ASSIGNED_CONTEXT((#599))
GLOBAL_UNIT_ASSIGNED_CONTEXT((#602,#604,#605))
REPRESENTATION_CONTEXT('','3D')
);
#602=(
LENGTH_UNIT()
NAMED_UNIT(*)
SI_UNIT(.MILLI.,.METRE.)
);
#603=(
LENGTH_UNIT()
NAMED_UNIT(*)
SI_UNIT($,.METRE.)
);
#604=(
NAMED_UNIT(*)
PLANE_ANGLE_UNIT()
SI_UNIT($,.RADIAN.)
);
#605=(
NAMED_UNIT(*)
SI_UNIT($,.STERADIAN.)
SOLID_ANGLE_UNIT()
);
#606=SHAPE_DEFINITION_REPRESENTATION(#607,#608);
#607=PRODUCT_DEFINITION_SHAPE('',$,#610);
#608=SHAPE_REPRESENTATION('',(#318),#600);
#609=PRODUCT_DEFINITION_CONTEXT('part definition',#614,'design');
#610=PRODUCT_DEFINITION('Sphere','Sphere v8',#611,#609);
#611=PRODUCT_DEFINITION_FORMATION('',$,#616);
#612=PRODUCT_RELATED_PRODUCT_CATEGORY('Sphere v8','Sphere v8',(#616));
#613=APPLICATION_PROTOCOL_DEFINITION('international standard',
'automotive_design',2009,#614);
#614=APPLICATION_CONTEXT(
'Core Data for Automotive Mechanical Design Process');
#615=PRODUCT_CONTEXT('part definition',#614,'mechanical');
#616=PRODUCT('Sphere','Sphere v8',$,(#615));
#617=PRESENTATION_STYLE_ASSIGNMENT((#619));
#618=PRESENTATION_STYLE_ASSIGNMENT((#620));
#619=SURFACE_STYLE_USAGE(.BOTH.,#621);
#620=SURFACE_STYLE_USAGE(.BOTH.,#622);
#621=SURFACE_SIDE_STYLE('',(#623));
#622=SURFACE_SIDE_STYLE('',(#624));
#623=SURFACE_STYLE_FILL_AREA(#625);
#624=SURFACE_STYLE_FILL_AREA(#626);
#625=FILL_AREA_STYLE('Steel - Satin',(#627));
#626=FILL_AREA_STYLE('Polycarbonate (Clear)',(#628));
#627=FILL_AREA_STYLE_COLOUR('Steel - Satin',#629);
#628=FILL_AREA_STYLE_COLOUR('Polycarbonate (Clear)',#630);
#629=COLOUR_RGB('Steel - Satin',0.627450980392157,0.627450980392157,0.627450980392157);
#630=COLOUR_RGB('Polycarbonate (Clear)',0.784313725490196,0.784313725490196,
0.784313725490196);
ENDSEC;
END-ISO-10303-21;
